G04 EAGLE Gerber RS-274X export*
G75*
%MOMM*%
%FSLAX34Y34*%
%LPD*%
%INBottom Copper*%
%IPPOS*%
%AMOC8*
5,1,8,0,0,1.08239X$1,22.5*%
G01*
%ADD10R,1.465300X1.164600*%
%ADD11R,1.815300X1.164600*%
%ADD12R,1.000000X0.800000*%
%ADD13R,1.000000X1.100000*%
%ADD14R,0.850000X0.500000*%
%ADD15R,0.800000X0.600000*%
%ADD16R,3.750000X4.410000*%
%ADD17C,0.150000*%
%ADD18C,0.406400*%
%ADD19C,0.553200*%

G36*
X493975Y743952D02*
X493975Y743952D01*
X493977Y743951D01*
X494020Y743971D01*
X494064Y743989D01*
X494064Y743991D01*
X494066Y743992D01*
X494099Y744077D01*
X494099Y922533D01*
X494098Y922535D01*
X494099Y922537D01*
X494079Y922580D01*
X494061Y922624D01*
X494059Y922625D01*
X494058Y922627D01*
X493973Y922659D01*
X462763Y922659D01*
X461649Y923773D01*
X461649Y957097D01*
X461651Y957099D01*
X461695Y957143D01*
X461695Y957144D01*
X461696Y957144D01*
X461714Y957190D01*
X461732Y957234D01*
X461731Y957235D01*
X461732Y957236D01*
X461712Y957280D01*
X461692Y957324D01*
X461691Y957325D01*
X461691Y957326D01*
X461606Y957358D01*
X460610Y957358D01*
X460049Y957919D01*
X460046Y957921D01*
X460045Y957924D01*
X459960Y957956D01*
X396068Y957956D01*
X396066Y957956D01*
X396064Y957956D01*
X396021Y957936D01*
X395978Y957918D01*
X395977Y957916D01*
X395975Y957915D01*
X395942Y957830D01*
X395942Y954907D01*
X395201Y954165D01*
X379499Y954165D01*
X378758Y954907D01*
X378758Y965130D01*
X378757Y965133D01*
X378758Y965136D01*
X378721Y965220D01*
X375725Y968215D01*
X375722Y968217D01*
X375721Y968220D01*
X375636Y968252D01*
X365905Y968252D01*
X365902Y968251D01*
X365899Y968252D01*
X365816Y968215D01*
X364885Y967284D01*
X345015Y967284D01*
X343834Y968465D01*
X343834Y974635D01*
X345015Y975816D01*
X345716Y975816D01*
X345717Y975816D01*
X345718Y975816D01*
X345762Y975835D01*
X345807Y975854D01*
X345807Y975855D01*
X345808Y975856D01*
X345825Y975901D01*
X345842Y975946D01*
X345842Y975947D01*
X345842Y975948D01*
X345805Y976031D01*
X342889Y978947D01*
X342886Y978949D01*
X342885Y978952D01*
X342800Y978984D01*
X334676Y978984D01*
X333934Y979726D01*
X333934Y988123D01*
X333934Y988125D01*
X333934Y988127D01*
X333914Y988170D01*
X333896Y988214D01*
X333894Y988214D01*
X333893Y988216D01*
X333808Y988249D01*
X328915Y988249D01*
X328912Y988248D01*
X328909Y988249D01*
X328826Y988212D01*
X326503Y985889D01*
X326501Y985886D01*
X326498Y985885D01*
X326466Y985800D01*
X326466Y979726D01*
X325724Y978984D01*
X317600Y978984D01*
X317597Y978983D01*
X317594Y978984D01*
X317511Y978947D01*
X314595Y976031D01*
X314594Y976030D01*
X314593Y976030D01*
X314576Y975984D01*
X314558Y975940D01*
X314558Y975939D01*
X314558Y975938D01*
X314578Y975894D01*
X314598Y975850D01*
X314599Y975849D01*
X314599Y975848D01*
X314684Y975816D01*
X315385Y975816D01*
X316566Y974635D01*
X316566Y968465D01*
X315385Y967284D01*
X295515Y967284D01*
X294334Y968465D01*
X294334Y974635D01*
X295515Y975816D01*
X305000Y975816D01*
X305003Y975817D01*
X305006Y975816D01*
X305089Y975853D01*
X313897Y984661D01*
X313899Y984664D01*
X313902Y984665D01*
X313934Y984750D01*
X313934Y988774D01*
X314676Y989516D01*
X320750Y989516D01*
X320753Y989517D01*
X320756Y989516D01*
X320839Y989553D01*
X326131Y994845D01*
X347931Y994845D01*
X359487Y983289D01*
X359490Y983287D01*
X359492Y983284D01*
X359577Y983252D01*
X408632Y983252D01*
X408634Y983252D01*
X408636Y983252D01*
X408679Y983272D01*
X408722Y983290D01*
X408723Y983292D01*
X408725Y983293D01*
X408758Y983378D01*
X408758Y986301D01*
X409499Y987043D01*
X428701Y987043D01*
X429442Y986301D01*
X429442Y973607D01*
X428701Y972865D01*
X409499Y972865D01*
X408758Y973607D01*
X408758Y976530D01*
X408757Y976532D01*
X408758Y976534D01*
X408738Y976577D01*
X408719Y976621D01*
X408717Y976622D01*
X408717Y976624D01*
X408632Y976656D01*
X356793Y976656D01*
X346681Y986768D01*
X346680Y986768D01*
X346680Y986769D01*
X346634Y986787D01*
X346590Y986805D01*
X346589Y986804D01*
X346588Y986805D01*
X346544Y986784D01*
X346500Y986765D01*
X346499Y986764D01*
X346498Y986763D01*
X346466Y986678D01*
X346466Y984750D01*
X346467Y984747D01*
X346466Y984744D01*
X346503Y984661D01*
X355311Y975853D01*
X355314Y975851D01*
X355315Y975848D01*
X355400Y975816D01*
X364885Y975816D01*
X365816Y974885D01*
X365819Y974883D01*
X365820Y974880D01*
X365905Y974848D01*
X378420Y974848D01*
X383837Y969431D01*
X383838Y969430D01*
X383838Y969429D01*
X383884Y969412D01*
X383928Y969394D01*
X383929Y969394D01*
X383930Y969394D01*
X383974Y969414D01*
X384018Y969434D01*
X384019Y969435D01*
X384020Y969435D01*
X384052Y969520D01*
X384052Y971646D01*
X384551Y972145D01*
X384553Y972148D01*
X384556Y972149D01*
X384588Y972234D01*
X384588Y973220D01*
X386950Y975582D01*
X390290Y975582D01*
X392652Y973220D01*
X392652Y969880D01*
X391330Y968558D01*
X391329Y968557D01*
X391328Y968557D01*
X391311Y968511D01*
X391293Y968467D01*
X391293Y968466D01*
X391293Y968465D01*
X391313Y968421D01*
X391333Y968377D01*
X391334Y968376D01*
X391334Y968375D01*
X391419Y968343D01*
X395201Y968343D01*
X395942Y967601D01*
X395942Y964678D01*
X395943Y964676D01*
X395942Y964674D01*
X395962Y964631D01*
X395981Y964587D01*
X395983Y964586D01*
X395983Y964584D01*
X396068Y964552D01*
X459688Y964552D01*
X459691Y964553D01*
X459694Y964552D01*
X459777Y964589D01*
X460299Y965111D01*
X460300Y965113D01*
X460302Y965114D01*
X460318Y965158D01*
X460336Y965202D01*
X460335Y965204D01*
X460336Y965206D01*
X460299Y965289D01*
X458248Y967340D01*
X458248Y970680D01*
X460610Y973042D01*
X463950Y973042D01*
X466312Y970680D01*
X466312Y967340D01*
X464261Y965289D01*
X464260Y965287D01*
X464258Y965286D01*
X464242Y965242D01*
X464224Y965198D01*
X464225Y965196D01*
X464224Y965194D01*
X464261Y965111D01*
X466312Y963060D01*
X466312Y959720D01*
X465018Y958426D01*
X465017Y958425D01*
X465016Y958425D01*
X464999Y958379D01*
X464981Y958335D01*
X464981Y958334D01*
X464981Y958333D01*
X465001Y958289D01*
X465021Y958245D01*
X465022Y958244D01*
X465022Y958243D01*
X465107Y958211D01*
X493973Y958211D01*
X493975Y958211D01*
X493977Y958211D01*
X494020Y958231D01*
X494064Y958249D01*
X494064Y958251D01*
X494066Y958252D01*
X494099Y958337D01*
X494099Y998873D01*
X494098Y998875D01*
X494099Y998877D01*
X494079Y998920D01*
X494061Y998964D01*
X494059Y998964D01*
X494058Y998966D01*
X493973Y998999D01*
X248593Y998999D01*
X248592Y998999D01*
X248591Y998999D01*
X248548Y998980D01*
X248503Y998961D01*
X248502Y998960D01*
X248501Y998959D01*
X248485Y998914D01*
X248467Y998869D01*
X248468Y998868D01*
X248467Y998867D01*
X248504Y998784D01*
X249551Y997737D01*
X249551Y945363D01*
X248437Y944249D01*
X219324Y944249D01*
X219322Y944249D01*
X219320Y944249D01*
X219277Y944229D01*
X219233Y944211D01*
X219232Y944209D01*
X219230Y944208D01*
X219198Y944123D01*
X219198Y936874D01*
X219198Y936872D01*
X219198Y936870D01*
X219218Y936827D01*
X219236Y936783D01*
X219238Y936782D01*
X219239Y936780D01*
X219324Y936748D01*
X220208Y936748D01*
X220210Y936748D01*
X220212Y936748D01*
X220255Y936768D01*
X220299Y936786D01*
X220300Y936788D01*
X220302Y936789D01*
X220334Y936874D01*
X220334Y942824D01*
X221076Y943566D01*
X230624Y943566D01*
X231055Y943135D01*
X231058Y943133D01*
X231060Y943130D01*
X231145Y943098D01*
X252582Y943098D01*
X252585Y943099D01*
X252588Y943098D01*
X252671Y943135D01*
X254865Y945329D01*
X254867Y945332D01*
X254870Y945333D01*
X254902Y945418D01*
X254902Y945608D01*
X254902Y945610D01*
X254902Y945612D01*
X254882Y945655D01*
X254864Y945699D01*
X254862Y945700D01*
X254861Y945702D01*
X254776Y945734D01*
X252676Y945734D01*
X251934Y946476D01*
X251934Y958524D01*
X252676Y959266D01*
X263724Y959266D01*
X264466Y958524D01*
X264466Y946476D01*
X263724Y945734D01*
X261624Y945734D01*
X261622Y945734D01*
X261620Y945734D01*
X261577Y945714D01*
X261533Y945696D01*
X261532Y945694D01*
X261530Y945693D01*
X261498Y945608D01*
X261498Y942634D01*
X259529Y940665D01*
X255827Y936963D01*
X255826Y936962D01*
X255825Y936962D01*
X255808Y936916D01*
X255790Y936872D01*
X255790Y936871D01*
X255790Y936870D01*
X255810Y936826D01*
X255830Y936782D01*
X255831Y936781D01*
X255831Y936780D01*
X255916Y936748D01*
X271632Y936748D01*
X271635Y936749D01*
X271638Y936748D01*
X271721Y936785D01*
X280455Y945519D01*
X280456Y945520D01*
X280457Y945520D01*
X280474Y945566D01*
X280492Y945610D01*
X280492Y945611D01*
X280492Y945612D01*
X280472Y945656D01*
X280452Y945700D01*
X280451Y945701D01*
X280451Y945702D01*
X280366Y945734D01*
X269676Y945734D01*
X268934Y946476D01*
X268934Y958524D01*
X269676Y959266D01*
X275100Y959266D01*
X275103Y959267D01*
X275106Y959266D01*
X275189Y959303D01*
X278034Y962148D01*
X294495Y962148D01*
X294498Y962149D01*
X294501Y962148D01*
X294584Y962185D01*
X295515Y963116D01*
X315385Y963116D01*
X316566Y961935D01*
X316566Y955765D01*
X315385Y954584D01*
X295735Y954584D01*
X295734Y954584D01*
X295733Y954584D01*
X295689Y954565D01*
X295644Y954546D01*
X295644Y954545D01*
X295643Y954544D01*
X295626Y954499D01*
X295609Y954454D01*
X295609Y954453D01*
X295609Y954452D01*
X295646Y954369D01*
X295845Y954170D01*
X295845Y950830D01*
X295646Y950631D01*
X295645Y950630D01*
X295644Y950630D01*
X295626Y950584D01*
X295609Y950540D01*
X295609Y950539D01*
X295609Y950538D01*
X295629Y950493D01*
X295649Y950450D01*
X295650Y950449D01*
X295650Y950448D01*
X295735Y950416D01*
X315385Y950416D01*
X316566Y949235D01*
X316566Y944180D01*
X316566Y944179D01*
X316567Y944177D01*
X316566Y944174D01*
X316603Y944091D01*
X337879Y922815D01*
X337882Y922813D01*
X337883Y922810D01*
X337968Y922778D01*
X403712Y922778D01*
X403715Y922779D01*
X403718Y922778D01*
X403801Y922815D01*
X415765Y934779D01*
X415767Y934782D01*
X415770Y934783D01*
X415802Y934868D01*
X415802Y943231D01*
X415802Y943233D01*
X415802Y943235D01*
X415782Y943278D01*
X415764Y943322D01*
X415762Y943323D01*
X415761Y943325D01*
X415676Y943357D01*
X409499Y943357D01*
X408758Y944099D01*
X408758Y956793D01*
X409499Y957535D01*
X428701Y957535D01*
X429442Y956793D01*
X429442Y944099D01*
X428701Y943357D01*
X422524Y943357D01*
X422522Y943357D01*
X422520Y943357D01*
X422477Y943337D01*
X422433Y943319D01*
X422432Y943317D01*
X422430Y943316D01*
X422398Y943231D01*
X422398Y932084D01*
X406496Y916182D01*
X335184Y916182D01*
X316781Y934585D01*
X316780Y934586D01*
X316780Y934587D01*
X316735Y934604D01*
X316690Y934622D01*
X316689Y934622D01*
X316688Y934622D01*
X316644Y934602D01*
X316600Y934582D01*
X316599Y934581D01*
X316598Y934581D01*
X316566Y934496D01*
X316566Y930365D01*
X315385Y929184D01*
X295515Y929184D01*
X294584Y930115D01*
X294581Y930117D01*
X294580Y930120D01*
X294495Y930152D01*
X289318Y930152D01*
X289315Y930151D01*
X289312Y930152D01*
X289229Y930115D01*
X281503Y922389D01*
X281501Y922386D01*
X281498Y922385D01*
X281466Y922300D01*
X281466Y914726D01*
X280724Y913984D01*
X269676Y913984D01*
X268934Y914726D01*
X268934Y926774D01*
X269676Y927516D01*
X277250Y927516D01*
X277253Y927517D01*
X277256Y927516D01*
X277339Y927553D01*
X286534Y936748D01*
X294495Y936748D01*
X294498Y936749D01*
X294501Y936748D01*
X294584Y936785D01*
X295515Y937716D01*
X313346Y937716D01*
X313347Y937716D01*
X313348Y937716D01*
X313392Y937735D01*
X313437Y937754D01*
X313437Y937755D01*
X313438Y937756D01*
X313455Y937801D01*
X313472Y937846D01*
X313472Y937847D01*
X313472Y937848D01*
X313435Y937931D01*
X309519Y941847D01*
X309516Y941849D01*
X309515Y941852D01*
X309430Y941884D01*
X295515Y941884D01*
X294584Y942815D01*
X294581Y942817D01*
X294580Y942820D01*
X294495Y942852D01*
X287168Y942852D01*
X287165Y942851D01*
X287162Y942852D01*
X287079Y942815D01*
X276385Y932121D01*
X274416Y930152D01*
X253766Y930152D01*
X253765Y930152D01*
X253764Y930152D01*
X253720Y930133D01*
X253675Y930114D01*
X253675Y930113D01*
X253674Y930112D01*
X253657Y930067D01*
X253640Y930022D01*
X253640Y930021D01*
X253640Y930020D01*
X253677Y929937D01*
X255185Y928429D01*
X256061Y927553D01*
X256062Y927552D01*
X256063Y927551D01*
X256064Y927550D01*
X256065Y927548D01*
X256150Y927516D01*
X263724Y927516D01*
X264466Y926774D01*
X264466Y914726D01*
X263724Y913984D01*
X252676Y913984D01*
X251934Y914726D01*
X251934Y922300D01*
X251933Y922303D01*
X251934Y922306D01*
X251897Y922389D01*
X250521Y923765D01*
X250518Y923767D01*
X250517Y923770D01*
X250432Y923802D01*
X187391Y923802D01*
X187390Y923802D01*
X187389Y923802D01*
X187345Y923783D01*
X187300Y923764D01*
X187300Y923763D01*
X187299Y923762D01*
X187282Y923717D01*
X187265Y923672D01*
X187265Y923671D01*
X187265Y923670D01*
X187302Y923587D01*
X188201Y922688D01*
X188204Y922686D01*
X188205Y922683D01*
X188290Y922651D01*
X235737Y922651D01*
X249551Y908837D01*
X249551Y862813D01*
X242087Y855349D01*
X222315Y855349D01*
X222312Y855348D01*
X222309Y855349D01*
X222226Y855312D01*
X221795Y854881D01*
X221794Y854880D01*
X221793Y854880D01*
X221776Y854835D01*
X221758Y854790D01*
X221758Y854789D01*
X221758Y854788D01*
X221779Y854743D01*
X221798Y854700D01*
X221799Y854699D01*
X221799Y854698D01*
X221884Y854666D01*
X230624Y854666D01*
X231055Y854235D01*
X231058Y854233D01*
X231060Y854230D01*
X231145Y854198D01*
X251808Y854198D01*
X251810Y854198D01*
X251812Y854198D01*
X251855Y854218D01*
X251899Y854236D01*
X251900Y854238D01*
X251902Y854239D01*
X251934Y854324D01*
X251934Y856924D01*
X252676Y857666D01*
X263724Y857666D01*
X264466Y856924D01*
X264466Y844876D01*
X263724Y844134D01*
X252676Y844134D01*
X251934Y844876D01*
X251934Y847476D01*
X251934Y847478D01*
X251934Y847480D01*
X251914Y847523D01*
X251896Y847567D01*
X251894Y847568D01*
X251893Y847570D01*
X251808Y847602D01*
X231145Y847602D01*
X231142Y847601D01*
X231138Y847602D01*
X231055Y847565D01*
X230624Y847134D01*
X221076Y847134D01*
X220334Y847876D01*
X220334Y853116D01*
X220334Y853117D01*
X220334Y853118D01*
X220315Y853162D01*
X220296Y853207D01*
X220295Y853207D01*
X220294Y853208D01*
X220249Y853225D01*
X220204Y853242D01*
X220203Y853242D01*
X220202Y853242D01*
X220119Y853205D01*
X219235Y852321D01*
X219233Y852318D01*
X219230Y852317D01*
X219198Y852232D01*
X219198Y845968D01*
X219199Y845965D01*
X219198Y845962D01*
X219235Y845879D01*
X223579Y841535D01*
X223582Y841533D01*
X223583Y841530D01*
X223668Y841498D01*
X277982Y841498D01*
X277985Y841499D01*
X277988Y841498D01*
X278071Y841535D01*
X280455Y843919D01*
X280456Y843920D01*
X280457Y843920D01*
X280474Y843966D01*
X280492Y844010D01*
X280492Y844011D01*
X280492Y844012D01*
X280472Y844056D01*
X280452Y844100D01*
X280451Y844101D01*
X280451Y844102D01*
X280366Y844134D01*
X269676Y844134D01*
X268934Y844876D01*
X268934Y856924D01*
X269676Y857666D01*
X271776Y857666D01*
X271778Y857666D01*
X271780Y857666D01*
X271823Y857686D01*
X271867Y857704D01*
X271868Y857706D01*
X271870Y857707D01*
X271902Y857792D01*
X271902Y860766D01*
X284384Y873248D01*
X294495Y873248D01*
X294498Y873249D01*
X294501Y873248D01*
X294584Y873285D01*
X295515Y874216D01*
X315385Y874216D01*
X316566Y873035D01*
X316566Y866865D01*
X315385Y865684D01*
X295515Y865684D01*
X294584Y866615D01*
X294581Y866617D01*
X294580Y866620D01*
X294495Y866652D01*
X287168Y866652D01*
X287165Y866651D01*
X287162Y866652D01*
X287079Y866615D01*
X278535Y858071D01*
X278533Y858068D01*
X278530Y858067D01*
X278498Y857982D01*
X278498Y857792D01*
X278498Y857790D01*
X278498Y857788D01*
X278518Y857745D01*
X278536Y857701D01*
X278538Y857700D01*
X278539Y857698D01*
X278624Y857666D01*
X280724Y857666D01*
X281466Y856924D01*
X281466Y845234D01*
X281466Y845233D01*
X281466Y845232D01*
X281485Y845188D01*
X281504Y845143D01*
X281505Y845143D01*
X281506Y845142D01*
X281551Y845125D01*
X281596Y845108D01*
X281597Y845108D01*
X281598Y845108D01*
X281681Y845145D01*
X282415Y845879D01*
X282417Y845882D01*
X282420Y845883D01*
X282452Y845968D01*
X282452Y852266D01*
X290734Y860548D01*
X294495Y860548D01*
X294498Y860549D01*
X294501Y860548D01*
X294584Y860585D01*
X295515Y861516D01*
X315385Y861516D01*
X316566Y860335D01*
X316566Y856550D01*
X316567Y856547D01*
X316566Y856544D01*
X316603Y856461D01*
X334069Y838995D01*
X334072Y838993D01*
X334073Y838990D01*
X334158Y838958D01*
X344651Y838958D01*
X344682Y838971D01*
X344715Y838976D01*
X344726Y838989D01*
X344741Y838996D01*
X344754Y839028D01*
X344774Y839055D01*
X344771Y839072D01*
X344777Y839088D01*
X344763Y839119D01*
X344757Y839152D01*
X344742Y839163D01*
X344735Y839177D01*
X344708Y839188D01*
X344683Y839206D01*
X344580Y839234D01*
X343829Y839667D01*
X343217Y840279D01*
X342784Y841030D01*
X342559Y841867D01*
X342559Y844297D01*
X354823Y844297D01*
X354825Y844298D01*
X354827Y844297D01*
X354870Y844317D01*
X354914Y844335D01*
X354914Y844337D01*
X354916Y844338D01*
X354949Y844423D01*
X354949Y844551D01*
X354951Y844551D01*
X354951Y844423D01*
X354952Y844421D01*
X354951Y844419D01*
X354971Y844376D01*
X354989Y844332D01*
X354991Y844332D01*
X354992Y844330D01*
X355077Y844297D01*
X367341Y844297D01*
X367341Y841867D01*
X367116Y841030D01*
X366683Y840279D01*
X366071Y839667D01*
X365320Y839234D01*
X365217Y839206D01*
X365190Y839185D01*
X365159Y839172D01*
X365153Y839156D01*
X365139Y839145D01*
X365135Y839112D01*
X365123Y839080D01*
X365130Y839064D01*
X365129Y839047D01*
X365150Y839021D01*
X365165Y838990D01*
X365181Y838984D01*
X365192Y838972D01*
X365221Y838968D01*
X365249Y838958D01*
X398146Y838958D01*
X398149Y838959D01*
X398152Y838958D01*
X398235Y838995D01*
X408721Y849480D01*
X408722Y849483D01*
X408725Y849485D01*
X408758Y849570D01*
X408758Y861543D01*
X409499Y862285D01*
X428701Y862285D01*
X429442Y861543D01*
X429442Y848849D01*
X428701Y848107D01*
X416727Y848107D01*
X416724Y848106D01*
X416721Y848107D01*
X416638Y848070D01*
X400930Y832362D01*
X331374Y832362D01*
X329405Y834331D01*
X316781Y846955D01*
X316780Y846956D01*
X316780Y846957D01*
X316734Y846974D01*
X316690Y846992D01*
X316689Y846992D01*
X316688Y846992D01*
X316644Y846972D01*
X316600Y846952D01*
X316599Y846951D01*
X316598Y846951D01*
X316566Y846866D01*
X316566Y841465D01*
X315385Y840284D01*
X305900Y840284D01*
X305897Y840283D01*
X305894Y840284D01*
X305811Y840247D01*
X287766Y822202D01*
X281592Y822202D01*
X281590Y822202D01*
X281588Y822202D01*
X281545Y822182D01*
X281501Y822164D01*
X281500Y822162D01*
X281498Y822161D01*
X281466Y822076D01*
X281466Y819476D01*
X280724Y818734D01*
X269676Y818734D01*
X268934Y819476D01*
X268934Y831524D01*
X269676Y832266D01*
X280724Y832266D01*
X281466Y831524D01*
X281466Y828924D01*
X281466Y828922D01*
X281466Y828920D01*
X281486Y828877D01*
X281504Y828833D01*
X281506Y828832D01*
X281507Y828830D01*
X281592Y828798D01*
X284982Y828798D01*
X284985Y828799D01*
X284988Y828798D01*
X285071Y828835D01*
X296305Y840069D01*
X296306Y840070D01*
X296307Y840070D01*
X296324Y840116D01*
X296342Y840160D01*
X296342Y840161D01*
X296342Y840162D01*
X296322Y840206D01*
X296302Y840250D01*
X296301Y840251D01*
X296301Y840252D01*
X296216Y840284D01*
X295515Y840284D01*
X294334Y841465D01*
X294334Y847635D01*
X295515Y848816D01*
X314616Y848816D01*
X314617Y848816D01*
X314618Y848816D01*
X314662Y848835D01*
X314707Y848854D01*
X314707Y848855D01*
X314708Y848856D01*
X314725Y848901D01*
X314742Y848946D01*
X314742Y848947D01*
X314742Y848948D01*
X314705Y849031D01*
X310789Y852947D01*
X310786Y852949D01*
X310785Y852952D01*
X310700Y852984D01*
X295515Y852984D01*
X294584Y853915D01*
X294581Y853917D01*
X294580Y853920D01*
X294495Y853952D01*
X293518Y853952D01*
X293515Y853951D01*
X293512Y853952D01*
X293429Y853915D01*
X289085Y849571D01*
X289083Y849568D01*
X289080Y849567D01*
X289048Y849482D01*
X289048Y843184D01*
X280766Y834902D01*
X255916Y834902D01*
X255915Y834902D01*
X255914Y834902D01*
X255870Y834883D01*
X255825Y834864D01*
X255825Y834863D01*
X255824Y834862D01*
X255807Y834817D01*
X255790Y834772D01*
X255790Y834771D01*
X255790Y834770D01*
X255827Y834687D01*
X258211Y832303D01*
X258214Y832301D01*
X258215Y832298D01*
X258300Y832266D01*
X263724Y832266D01*
X264466Y831524D01*
X264466Y819476D01*
X263724Y818734D01*
X252676Y818734D01*
X251934Y819476D01*
X251934Y828426D01*
X251934Y828428D01*
X251934Y828430D01*
X251914Y828473D01*
X251896Y828517D01*
X251894Y828518D01*
X251893Y828520D01*
X251808Y828552D01*
X151034Y828552D01*
X149065Y830521D01*
X132489Y847097D01*
X132486Y847099D01*
X132485Y847102D01*
X132400Y847134D01*
X125826Y847134D01*
X125084Y847876D01*
X125084Y853924D01*
X125826Y854666D01*
X135374Y854666D01*
X136116Y853924D01*
X136116Y852850D01*
X136117Y852847D01*
X136116Y852844D01*
X136153Y852761D01*
X153729Y835185D01*
X153732Y835183D01*
X153733Y835180D01*
X153818Y835148D01*
X220334Y835148D01*
X220335Y835148D01*
X220336Y835148D01*
X220380Y835167D01*
X220425Y835186D01*
X220425Y835187D01*
X220426Y835188D01*
X220443Y835233D01*
X220460Y835278D01*
X220460Y835279D01*
X220460Y835280D01*
X220423Y835363D01*
X218915Y836871D01*
X212602Y843184D01*
X212602Y855016D01*
X214571Y856985D01*
X217110Y859524D01*
X217111Y859526D01*
X217113Y859526D01*
X217129Y859571D01*
X217147Y859615D01*
X217146Y859617D01*
X217147Y859619D01*
X217110Y859702D01*
X215150Y861662D01*
X213999Y862813D01*
X213999Y899673D01*
X213999Y899675D01*
X213999Y899677D01*
X213979Y899720D01*
X213961Y899764D01*
X213959Y899765D01*
X213958Y899767D01*
X213873Y899799D01*
X204757Y899799D01*
X204756Y899799D01*
X204755Y899799D01*
X204712Y899780D01*
X204666Y899761D01*
X204666Y899760D01*
X204665Y899759D01*
X204649Y899715D01*
X204631Y899669D01*
X204631Y899668D01*
X204631Y899667D01*
X204668Y899584D01*
X204692Y899560D01*
X204692Y896220D01*
X202763Y894291D01*
X202762Y894290D01*
X202761Y894290D01*
X202744Y894244D01*
X202726Y894200D01*
X202726Y894199D01*
X202726Y894198D01*
X202746Y894154D01*
X202766Y894110D01*
X202767Y894109D01*
X202767Y894108D01*
X202852Y894076D01*
X210600Y894076D01*
X212086Y892590D01*
X212086Y847310D01*
X210600Y845824D01*
X152620Y845824D01*
X148594Y849850D01*
X148594Y890050D01*
X152620Y894076D01*
X198468Y894076D01*
X198469Y894076D01*
X198470Y894076D01*
X198514Y894095D01*
X198559Y894114D01*
X198559Y894115D01*
X198560Y894116D01*
X198577Y894161D01*
X198594Y894206D01*
X198594Y894207D01*
X198594Y894208D01*
X198557Y894291D01*
X196628Y896220D01*
X196628Y899560D01*
X196652Y899584D01*
X196653Y899585D01*
X196654Y899585D01*
X196671Y899630D01*
X196689Y899675D01*
X196689Y899676D01*
X196689Y899677D01*
X196669Y899720D01*
X196649Y899765D01*
X196648Y899766D01*
X196648Y899767D01*
X196563Y899799D01*
X116327Y899799D01*
X116325Y899799D01*
X116323Y899799D01*
X116280Y899779D01*
X116236Y899761D01*
X116235Y899759D01*
X116233Y899758D01*
X116201Y899673D01*
X116201Y843763D01*
X115087Y842649D01*
X58404Y842649D01*
X58402Y842649D01*
X58400Y842649D01*
X58357Y842629D01*
X58313Y842611D01*
X58313Y842609D01*
X58311Y842608D01*
X58278Y842523D01*
X58278Y837714D01*
X58278Y837713D01*
X58278Y837712D01*
X58297Y837668D01*
X58316Y837623D01*
X58317Y837623D01*
X58318Y837622D01*
X58363Y837605D01*
X58408Y837588D01*
X58409Y837588D01*
X58410Y837588D01*
X58493Y837625D01*
X60560Y839692D01*
X63900Y839692D01*
X66262Y837330D01*
X66262Y833990D01*
X63900Y831628D01*
X60560Y831628D01*
X58493Y833695D01*
X58492Y833696D01*
X58492Y833697D01*
X58446Y833714D01*
X58402Y833732D01*
X58401Y833732D01*
X58400Y833732D01*
X58356Y833712D01*
X58312Y833692D01*
X58312Y833691D01*
X58311Y833691D01*
X58278Y833606D01*
X58278Y827527D01*
X58278Y827526D01*
X58278Y827524D01*
X58278Y827523D01*
X58298Y827480D01*
X58316Y827436D01*
X58318Y827435D01*
X58319Y827433D01*
X58404Y827401D01*
X242087Y827401D01*
X243201Y826287D01*
X243201Y787687D01*
X243201Y787686D01*
X243201Y787685D01*
X243220Y787641D01*
X243239Y787596D01*
X243240Y787596D01*
X243241Y787595D01*
X243286Y787578D01*
X243331Y787561D01*
X243332Y787561D01*
X243333Y787561D01*
X243416Y787598D01*
X244710Y788892D01*
X248050Y788892D01*
X250412Y786530D01*
X250412Y783190D01*
X248050Y780828D01*
X244710Y780828D01*
X243416Y782122D01*
X243415Y782123D01*
X243415Y782124D01*
X243369Y782141D01*
X243325Y782159D01*
X243324Y782159D01*
X243323Y782159D01*
X243279Y782139D01*
X243235Y782119D01*
X243234Y782118D01*
X243233Y782118D01*
X243201Y782033D01*
X243201Y773913D01*
X235737Y766449D01*
X222315Y766449D01*
X222312Y766448D01*
X222309Y766449D01*
X222226Y766412D01*
X221795Y765981D01*
X221794Y765980D01*
X221793Y765980D01*
X221776Y765935D01*
X221758Y765890D01*
X221758Y765889D01*
X221758Y765888D01*
X221779Y765843D01*
X221798Y765800D01*
X221799Y765799D01*
X221799Y765798D01*
X221884Y765766D01*
X230624Y765766D01*
X231055Y765335D01*
X231058Y765333D01*
X231060Y765330D01*
X231145Y765298D01*
X239882Y765298D01*
X239885Y765299D01*
X239888Y765298D01*
X239971Y765335D01*
X251897Y777261D01*
X251899Y777264D01*
X251902Y777265D01*
X251934Y777350D01*
X251934Y787074D01*
X252676Y787816D01*
X263724Y787816D01*
X264466Y787074D01*
X264466Y775026D01*
X263724Y774284D01*
X258300Y774284D01*
X258297Y774283D01*
X258294Y774284D01*
X258211Y774247D01*
X243127Y759163D01*
X243126Y759162D01*
X243125Y759162D01*
X243108Y759116D01*
X243090Y759072D01*
X243090Y759071D01*
X243090Y759070D01*
X243110Y759026D01*
X243130Y758982D01*
X243131Y758981D01*
X243131Y758980D01*
X243216Y758948D01*
X246232Y758948D01*
X246235Y758949D01*
X246238Y758948D01*
X246321Y758985D01*
X258984Y771648D01*
X284332Y771648D01*
X284335Y771649D01*
X284338Y771648D01*
X284421Y771685D01*
X288765Y776029D01*
X290734Y777998D01*
X294495Y777998D01*
X294498Y777999D01*
X294501Y777998D01*
X294584Y778035D01*
X295515Y778966D01*
X315385Y778966D01*
X316316Y778035D01*
X316319Y778033D01*
X316320Y778030D01*
X316405Y777998D01*
X325216Y777998D01*
X336038Y767176D01*
X336038Y754528D01*
X336039Y754525D01*
X336038Y754522D01*
X336075Y754439D01*
X336609Y753905D01*
X336612Y753903D01*
X336613Y753900D01*
X336698Y753868D01*
X401956Y753868D01*
X401959Y753869D01*
X401962Y753868D01*
X402045Y753905D01*
X408721Y760580D01*
X408722Y760583D01*
X408725Y760585D01*
X408758Y760670D01*
X408758Y772643D01*
X409499Y773385D01*
X428701Y773385D01*
X429442Y772643D01*
X429442Y759949D01*
X428701Y759207D01*
X416727Y759207D01*
X416724Y759206D01*
X416721Y759207D01*
X416638Y759170D01*
X406709Y749241D01*
X404740Y747272D01*
X333914Y747272D01*
X331945Y749241D01*
X329442Y751744D01*
X329442Y764392D01*
X329441Y764395D01*
X329442Y764398D01*
X329405Y764481D01*
X322521Y771365D01*
X322518Y771367D01*
X322517Y771370D01*
X322432Y771402D01*
X316405Y771402D01*
X316402Y771401D01*
X316399Y771402D01*
X316316Y771365D01*
X315385Y770434D01*
X295515Y770434D01*
X294584Y771365D01*
X294581Y771367D01*
X294580Y771370D01*
X294495Y771402D01*
X293518Y771402D01*
X293515Y771401D01*
X293512Y771402D01*
X293429Y771365D01*
X289085Y767021D01*
X287116Y765052D01*
X261768Y765052D01*
X261765Y765051D01*
X261762Y765052D01*
X261679Y765015D01*
X259295Y762631D01*
X259294Y762630D01*
X259293Y762630D01*
X259276Y762584D01*
X259258Y762540D01*
X259258Y762539D01*
X259258Y762538D01*
X259278Y762494D01*
X259298Y762450D01*
X259299Y762449D01*
X259299Y762448D01*
X259384Y762416D01*
X270074Y762416D01*
X270816Y761674D01*
X270816Y749626D01*
X270074Y748884D01*
X262500Y748884D01*
X262497Y748883D01*
X262494Y748884D01*
X262411Y748847D01*
X259566Y746002D01*
X151034Y746002D01*
X138371Y758665D01*
X138368Y758667D01*
X138367Y758670D01*
X138282Y758702D01*
X135895Y758702D01*
X135892Y758701D01*
X135888Y758702D01*
X135805Y758665D01*
X135374Y758234D01*
X125826Y758234D01*
X125084Y758976D01*
X125084Y765024D01*
X125826Y765766D01*
X135374Y765766D01*
X135805Y765335D01*
X135808Y765333D01*
X135810Y765330D01*
X135895Y765298D01*
X141066Y765298D01*
X153729Y752635D01*
X153732Y752633D01*
X153733Y752630D01*
X153818Y752598D01*
X213984Y752598D01*
X213985Y752598D01*
X213986Y752598D01*
X214030Y752617D01*
X214075Y752636D01*
X214075Y752637D01*
X214076Y752638D01*
X214093Y752683D01*
X214110Y752728D01*
X214110Y752729D01*
X214110Y752730D01*
X214073Y752813D01*
X212602Y754284D01*
X212602Y766116D01*
X214571Y768085D01*
X217110Y770624D01*
X217111Y770626D01*
X217113Y770626D01*
X217129Y770671D01*
X217147Y770715D01*
X217146Y770717D01*
X217147Y770719D01*
X217110Y770802D01*
X215150Y772762D01*
X213999Y773913D01*
X213999Y804423D01*
X213999Y804425D01*
X213999Y804427D01*
X213979Y804470D01*
X213961Y804514D01*
X213959Y804515D01*
X213958Y804517D01*
X213873Y804549D01*
X211531Y804549D01*
X211530Y804549D01*
X211529Y804549D01*
X211485Y804530D01*
X211441Y804511D01*
X211440Y804510D01*
X211439Y804509D01*
X211423Y804464D01*
X211405Y804419D01*
X211406Y804418D01*
X211405Y804417D01*
X211442Y804334D01*
X212086Y803690D01*
X212086Y758410D01*
X210600Y756924D01*
X155618Y756924D01*
X155615Y756923D01*
X155612Y756924D01*
X155529Y756887D01*
X155340Y756698D01*
X152000Y756698D01*
X149638Y759060D01*
X149638Y759853D01*
X149637Y759856D01*
X149638Y759859D01*
X149601Y759943D01*
X148594Y760950D01*
X148594Y801150D01*
X151097Y803653D01*
X151778Y804334D01*
X151778Y804335D01*
X151779Y804335D01*
X151797Y804380D01*
X151815Y804425D01*
X151814Y804426D01*
X151815Y804427D01*
X151794Y804472D01*
X151775Y804515D01*
X151774Y804516D01*
X151774Y804517D01*
X151689Y804549D01*
X136799Y804549D01*
X136798Y804549D01*
X136797Y804549D01*
X136753Y804530D01*
X136708Y804511D01*
X136707Y804510D01*
X136706Y804509D01*
X136690Y804464D01*
X136672Y804419D01*
X136673Y804418D01*
X136672Y804417D01*
X136709Y804334D01*
X136883Y804160D01*
X137218Y803581D01*
X137391Y802935D01*
X137391Y801349D01*
X131215Y801349D01*
X131150Y801338D01*
X131085Y801336D01*
X131041Y801318D01*
X130994Y801310D01*
X130938Y801276D01*
X130877Y801251D01*
X130842Y801220D01*
X130801Y801195D01*
X130760Y801144D01*
X130711Y801100D01*
X130690Y801058D01*
X130660Y801021D01*
X130639Y800959D01*
X130609Y800900D01*
X130602Y800855D01*
X130588Y800889D01*
X130579Y800936D01*
X130546Y800993D01*
X130521Y801053D01*
X130489Y801088D01*
X130465Y801129D01*
X130414Y801171D01*
X130370Y801219D01*
X130328Y801241D01*
X130291Y801270D01*
X130229Y801291D01*
X130170Y801322D01*
X130116Y801330D01*
X130079Y801342D01*
X130039Y801341D01*
X129985Y801349D01*
X123809Y801349D01*
X123809Y802935D01*
X123982Y803581D01*
X124317Y804160D01*
X124367Y804210D01*
X124491Y804334D01*
X124491Y804335D01*
X124492Y804335D01*
X124510Y804381D01*
X124528Y804425D01*
X124527Y804426D01*
X124528Y804427D01*
X124507Y804472D01*
X124488Y804515D01*
X124487Y804516D01*
X124486Y804517D01*
X124401Y804549D01*
X116327Y804549D01*
X116325Y804549D01*
X116323Y804549D01*
X116280Y804529D01*
X116236Y804511D01*
X116235Y804509D01*
X116233Y804508D01*
X116201Y804423D01*
X116201Y744077D01*
X116201Y744075D01*
X116201Y744073D01*
X116221Y744030D01*
X116239Y743986D01*
X116241Y743986D01*
X116242Y743984D01*
X116327Y743951D01*
X493973Y743951D01*
X493975Y743952D01*
G37*
G36*
X114365Y743962D02*
X114365Y743962D01*
X114431Y743964D01*
X114474Y743982D01*
X114521Y743990D01*
X114578Y744024D01*
X114638Y744049D01*
X114673Y744080D01*
X114714Y744105D01*
X114756Y744156D01*
X114804Y744200D01*
X114826Y744242D01*
X114855Y744279D01*
X114876Y744341D01*
X114907Y744400D01*
X114915Y744454D01*
X114927Y744491D01*
X114926Y744531D01*
X114934Y744585D01*
X114934Y757100D01*
X114923Y757165D01*
X114921Y757231D01*
X114903Y757274D01*
X114895Y757321D01*
X114861Y757378D01*
X114836Y757439D01*
X114805Y757473D01*
X114780Y757514D01*
X114729Y757556D01*
X114685Y757604D01*
X114643Y757626D01*
X114606Y757656D01*
X114544Y757677D01*
X114485Y757707D01*
X114431Y757715D01*
X114394Y757727D01*
X114354Y757726D01*
X114300Y757734D01*
X75826Y757734D01*
X75084Y758476D01*
X75084Y803624D01*
X75826Y804366D01*
X114300Y804366D01*
X114365Y804377D01*
X114431Y804379D01*
X114474Y804397D01*
X114521Y804405D01*
X114578Y804439D01*
X114638Y804464D01*
X114673Y804495D01*
X114714Y804519D01*
X114756Y804571D01*
X114804Y804615D01*
X114826Y804657D01*
X114855Y804694D01*
X114876Y804756D01*
X114907Y804815D01*
X114915Y804869D01*
X114927Y804906D01*
X114926Y804945D01*
X114934Y805000D01*
X114934Y805816D01*
X215266Y805816D01*
X215266Y774700D01*
X215273Y774658D01*
X215271Y774616D01*
X215293Y774549D01*
X215305Y774479D01*
X215327Y774443D01*
X215340Y774402D01*
X215394Y774329D01*
X215420Y774286D01*
X215436Y774273D01*
X215452Y774252D01*
X221802Y767902D01*
X221836Y767877D01*
X221865Y767846D01*
X221928Y767814D01*
X221986Y767773D01*
X222027Y767763D01*
X222065Y767743D01*
X222154Y767730D01*
X222203Y767718D01*
X222224Y767720D01*
X222250Y767716D01*
X234950Y767716D01*
X234992Y767723D01*
X235034Y767721D01*
X235101Y767743D01*
X235171Y767755D01*
X235207Y767777D01*
X235248Y767790D01*
X235321Y767844D01*
X235364Y767870D01*
X235377Y767886D01*
X235398Y767902D01*
X241748Y774252D01*
X241773Y774286D01*
X241804Y774315D01*
X241836Y774378D01*
X241877Y774436D01*
X241887Y774477D01*
X241907Y774515D01*
X241920Y774604D01*
X241933Y774653D01*
X241930Y774674D01*
X241934Y774700D01*
X241934Y825500D01*
X241923Y825565D01*
X241921Y825631D01*
X241903Y825674D01*
X241895Y825721D01*
X241861Y825778D01*
X241836Y825838D01*
X241805Y825873D01*
X241780Y825914D01*
X241729Y825956D01*
X241685Y826004D01*
X241643Y826026D01*
X241606Y826055D01*
X241544Y826076D01*
X241485Y826107D01*
X241431Y826115D01*
X241394Y826127D01*
X241354Y826126D01*
X241300Y826134D01*
X218689Y826134D01*
X218601Y826118D01*
X218512Y826109D01*
X218491Y826099D01*
X218468Y826095D01*
X218391Y826049D01*
X218311Y826010D01*
X218295Y825993D01*
X218275Y825980D01*
X218218Y825911D01*
X218157Y825847D01*
X218148Y825825D01*
X218133Y825806D01*
X218105Y825722D01*
X218070Y825640D01*
X218069Y825616D01*
X218061Y825594D01*
X218064Y825505D01*
X218060Y825416D01*
X218067Y825393D01*
X218068Y825369D01*
X218101Y825287D01*
X218129Y825202D01*
X218144Y825181D01*
X218152Y825162D01*
X218186Y825124D01*
X218240Y825052D01*
X219932Y823360D01*
X219932Y820020D01*
X217570Y817658D01*
X214230Y817658D01*
X211868Y820020D01*
X211868Y823360D01*
X213560Y825052D01*
X213611Y825125D01*
X213667Y825194D01*
X213674Y825216D01*
X213688Y825236D01*
X213710Y825322D01*
X213739Y825406D01*
X213738Y825430D01*
X213744Y825453D01*
X213735Y825542D01*
X213732Y825631D01*
X213723Y825653D01*
X213721Y825676D01*
X213681Y825756D01*
X213648Y825838D01*
X213632Y825856D01*
X213621Y825877D01*
X213556Y825938D01*
X213496Y826004D01*
X213475Y826015D01*
X213458Y826031D01*
X213376Y826066D01*
X213297Y826107D01*
X213271Y826110D01*
X213251Y826119D01*
X213201Y826121D01*
X213111Y826134D01*
X58912Y826134D01*
X58847Y826123D01*
X58781Y826121D01*
X58738Y826103D01*
X58691Y826095D01*
X58634Y826061D01*
X58574Y826036D01*
X58539Y826005D01*
X58498Y825980D01*
X58456Y825929D01*
X58408Y825885D01*
X58386Y825843D01*
X58357Y825806D01*
X58336Y825744D01*
X58305Y825685D01*
X58297Y825631D01*
X58285Y825594D01*
X58286Y825554D01*
X58278Y825500D01*
X58278Y812333D01*
X57617Y811672D01*
X1635Y811672D01*
X1570Y811661D01*
X1504Y811659D01*
X1461Y811641D01*
X1414Y811633D01*
X1357Y811599D01*
X1297Y811574D01*
X1262Y811543D01*
X1221Y811518D01*
X1179Y811467D01*
X1131Y811423D01*
X1109Y811381D01*
X1080Y811344D01*
X1059Y811282D01*
X1028Y811223D01*
X1020Y811169D01*
X1008Y811132D01*
X1009Y811092D01*
X1001Y811038D01*
X1001Y744585D01*
X1012Y744520D01*
X1014Y744454D01*
X1032Y744411D01*
X1040Y744364D01*
X1074Y744307D01*
X1099Y744247D01*
X1130Y744212D01*
X1155Y744171D01*
X1206Y744129D01*
X1250Y744081D01*
X1292Y744059D01*
X1329Y744030D01*
X1391Y744009D01*
X1450Y743978D01*
X1504Y743970D01*
X1541Y743958D01*
X1581Y743959D01*
X1635Y743951D01*
X114300Y743951D01*
X114365Y743962D01*
G37*
G36*
X114365Y843927D02*
X114365Y843927D01*
X114431Y843929D01*
X114474Y843947D01*
X114521Y843955D01*
X114578Y843989D01*
X114638Y844014D01*
X114673Y844045D01*
X114714Y844070D01*
X114756Y844121D01*
X114804Y844165D01*
X114826Y844207D01*
X114855Y844244D01*
X114876Y844306D01*
X114907Y844365D01*
X114915Y844419D01*
X114927Y844456D01*
X114926Y844496D01*
X114934Y844550D01*
X114934Y846000D01*
X114923Y846065D01*
X114921Y846131D01*
X114903Y846174D01*
X114895Y846221D01*
X114861Y846278D01*
X114836Y846339D01*
X114805Y846373D01*
X114780Y846414D01*
X114729Y846456D01*
X114685Y846504D01*
X114643Y846526D01*
X114606Y846556D01*
X114544Y846577D01*
X114485Y846607D01*
X114431Y846615D01*
X114394Y846627D01*
X114354Y846626D01*
X114300Y846634D01*
X75826Y846634D01*
X75084Y847376D01*
X75084Y892524D01*
X75826Y893266D01*
X114300Y893266D01*
X114365Y893277D01*
X114431Y893279D01*
X114474Y893297D01*
X114521Y893305D01*
X114578Y893339D01*
X114638Y893364D01*
X114673Y893395D01*
X114714Y893419D01*
X114756Y893471D01*
X114804Y893515D01*
X114826Y893557D01*
X114855Y893594D01*
X114876Y893656D01*
X114907Y893715D01*
X114915Y893769D01*
X114927Y893806D01*
X114926Y893845D01*
X114934Y893900D01*
X114934Y901066D01*
X197871Y901066D01*
X197913Y901073D01*
X197956Y901071D01*
X198023Y901093D01*
X198092Y901105D01*
X198129Y901127D01*
X198169Y901140D01*
X198242Y901194D01*
X198285Y901220D01*
X198299Y901236D01*
X198320Y901252D01*
X198990Y901922D01*
X202330Y901922D01*
X203000Y901252D01*
X203035Y901227D01*
X203064Y901196D01*
X203126Y901164D01*
X203184Y901123D01*
X203225Y901113D01*
X203263Y901093D01*
X203353Y901080D01*
X203402Y901068D01*
X203422Y901070D01*
X203449Y901066D01*
X215266Y901066D01*
X215266Y863600D01*
X215273Y863558D01*
X215271Y863516D01*
X215293Y863449D01*
X215305Y863379D01*
X215327Y863343D01*
X215340Y863302D01*
X215385Y863241D01*
X215386Y863239D01*
X215389Y863235D01*
X215394Y863229D01*
X215420Y863186D01*
X215436Y863173D01*
X215452Y863152D01*
X221802Y856802D01*
X221836Y856777D01*
X221865Y856746D01*
X221928Y856714D01*
X221986Y856673D01*
X222027Y856663D01*
X222065Y856643D01*
X222154Y856630D01*
X222203Y856618D01*
X222224Y856620D01*
X222250Y856616D01*
X241300Y856616D01*
X241342Y856623D01*
X241384Y856621D01*
X241451Y856643D01*
X241521Y856655D01*
X241557Y856677D01*
X241598Y856690D01*
X241671Y856744D01*
X241714Y856770D01*
X241727Y856786D01*
X241748Y856802D01*
X248098Y863152D01*
X248123Y863186D01*
X248154Y863215D01*
X248186Y863278D01*
X248227Y863336D01*
X248237Y863377D01*
X248257Y863415D01*
X248270Y863504D01*
X248283Y863553D01*
X248280Y863574D01*
X248284Y863600D01*
X248284Y908050D01*
X248277Y908092D01*
X248279Y908134D01*
X248257Y908201D01*
X248245Y908271D01*
X248223Y908307D01*
X248210Y908348D01*
X248156Y908421D01*
X248130Y908464D01*
X248114Y908477D01*
X248098Y908498D01*
X235398Y921198D01*
X235364Y921223D01*
X235335Y921254D01*
X235272Y921286D01*
X235214Y921327D01*
X235173Y921337D01*
X235135Y921357D01*
X235046Y921370D01*
X234997Y921383D01*
X234976Y921380D01*
X234950Y921384D01*
X188816Y921384D01*
X188751Y921373D01*
X188685Y921371D01*
X188642Y921353D01*
X188595Y921345D01*
X188538Y921311D01*
X188477Y921286D01*
X188443Y921255D01*
X188402Y921230D01*
X188360Y921179D01*
X188312Y921135D01*
X188290Y921093D01*
X188260Y921056D01*
X188239Y920994D01*
X188209Y920935D01*
X188201Y920881D01*
X188189Y920844D01*
X188190Y920804D01*
X188182Y920750D01*
X188182Y919367D01*
X185820Y917005D01*
X182480Y917005D01*
X180118Y919367D01*
X180118Y920750D01*
X180107Y920815D01*
X180105Y920881D01*
X180087Y920924D01*
X180079Y920971D01*
X180045Y921028D01*
X180020Y921088D01*
X179989Y921123D01*
X179965Y921164D01*
X179913Y921206D01*
X179869Y921254D01*
X179827Y921276D01*
X179790Y921305D01*
X179728Y921326D01*
X179669Y921357D01*
X179615Y921365D01*
X179578Y921377D01*
X179539Y921376D01*
X179484Y921384D01*
X58912Y921384D01*
X58847Y921373D01*
X58781Y921371D01*
X58738Y921353D01*
X58691Y921345D01*
X58634Y921311D01*
X58574Y921286D01*
X58539Y921255D01*
X58498Y921230D01*
X58456Y921179D01*
X58408Y921135D01*
X58386Y921093D01*
X58357Y921056D01*
X58336Y920994D01*
X58305Y920935D01*
X58297Y920881D01*
X58285Y920844D01*
X58286Y920804D01*
X58278Y920750D01*
X58278Y915141D01*
X58293Y915053D01*
X58303Y914964D01*
X58313Y914943D01*
X58317Y914920D01*
X58363Y914843D01*
X58402Y914763D01*
X58419Y914747D01*
X58432Y914726D01*
X58501Y914670D01*
X58565Y914609D01*
X58587Y914600D01*
X58606Y914585D01*
X58690Y914557D01*
X58772Y914522D01*
X58796Y914521D01*
X58818Y914513D01*
X58907Y914516D01*
X58996Y914512D01*
X59019Y914519D01*
X59043Y914520D01*
X59125Y914553D01*
X59210Y914581D01*
X59231Y914596D01*
X59250Y914604D01*
X59288Y914638D01*
X59360Y914692D01*
X60560Y915892D01*
X63900Y915892D01*
X66262Y913530D01*
X66262Y910190D01*
X63900Y907828D01*
X60560Y907828D01*
X59360Y909028D01*
X59287Y909079D01*
X59218Y909135D01*
X59196Y909142D01*
X59176Y909156D01*
X59090Y909178D01*
X59006Y909207D01*
X58982Y909206D01*
X58959Y909212D01*
X58870Y909203D01*
X58781Y909200D01*
X58759Y909191D01*
X58736Y909189D01*
X58656Y909149D01*
X58574Y909116D01*
X58556Y909100D01*
X58535Y909089D01*
X58474Y909025D01*
X58408Y908964D01*
X58397Y908943D01*
X58381Y908926D01*
X58346Y908844D01*
X58305Y908765D01*
X58302Y908739D01*
X58293Y908719D01*
X58291Y908669D01*
X58278Y908579D01*
X58278Y901171D01*
X58293Y901083D01*
X58303Y900994D01*
X58313Y900973D01*
X58317Y900950D01*
X58363Y900873D01*
X58402Y900793D01*
X58419Y900777D01*
X58432Y900756D01*
X58501Y900700D01*
X58565Y900639D01*
X58587Y900630D01*
X58606Y900615D01*
X58690Y900587D01*
X58772Y900552D01*
X58796Y900551D01*
X58818Y900543D01*
X58907Y900546D01*
X58996Y900542D01*
X59019Y900549D01*
X59043Y900550D01*
X59125Y900583D01*
X59210Y900611D01*
X59231Y900626D01*
X59250Y900634D01*
X59288Y900668D01*
X59360Y900722D01*
X60560Y901922D01*
X63900Y901922D01*
X66262Y899560D01*
X66262Y896220D01*
X63900Y893858D01*
X60560Y893858D01*
X58198Y896220D01*
X58198Y899587D01*
X58235Y899632D01*
X58242Y899654D01*
X58256Y899674D01*
X58278Y899760D01*
X58307Y899844D01*
X58306Y899868D01*
X58312Y899891D01*
X58303Y899980D01*
X58300Y900069D01*
X58291Y900090D01*
X58289Y900114D01*
X58249Y900194D01*
X58216Y900276D01*
X58200Y900294D01*
X58189Y900315D01*
X58124Y900376D01*
X58064Y900442D01*
X58043Y900453D01*
X58026Y900469D01*
X57944Y900504D01*
X57865Y900545D01*
X57839Y900548D01*
X57820Y900557D01*
X57769Y900559D01*
X57679Y900572D01*
X1635Y900572D01*
X1570Y900561D01*
X1504Y900559D01*
X1461Y900541D01*
X1414Y900533D01*
X1357Y900499D01*
X1297Y900474D01*
X1262Y900443D01*
X1221Y900418D01*
X1179Y900367D01*
X1131Y900323D01*
X1109Y900281D01*
X1080Y900244D01*
X1059Y900182D01*
X1028Y900123D01*
X1020Y900069D01*
X1008Y900032D01*
X1009Y899992D01*
X1001Y899938D01*
X1001Y846312D01*
X1012Y846247D01*
X1014Y846181D01*
X1032Y846138D01*
X1040Y846091D01*
X1074Y846034D01*
X1099Y845974D01*
X1130Y845939D01*
X1155Y845898D01*
X1206Y845856D01*
X1250Y845808D01*
X1292Y845786D01*
X1329Y845757D01*
X1391Y845736D01*
X1450Y845705D01*
X1504Y845697D01*
X1541Y845685D01*
X1581Y845686D01*
X1635Y845678D01*
X57617Y845678D01*
X58278Y845017D01*
X58278Y844550D01*
X58289Y844485D01*
X58291Y844419D01*
X58309Y844376D01*
X58317Y844329D01*
X58351Y844272D01*
X58376Y844212D01*
X58407Y844177D01*
X58432Y844136D01*
X58483Y844095D01*
X58527Y844046D01*
X58569Y844024D01*
X58606Y843995D01*
X58668Y843974D01*
X58727Y843943D01*
X58781Y843935D01*
X58818Y843923D01*
X58858Y843924D01*
X58912Y843916D01*
X114300Y843916D01*
X114365Y843927D01*
G37*
G36*
X114365Y932827D02*
X114365Y932827D01*
X114431Y932829D01*
X114474Y932847D01*
X114521Y932855D01*
X114578Y932889D01*
X114638Y932914D01*
X114673Y932945D01*
X114714Y932970D01*
X114756Y933021D01*
X114804Y933065D01*
X114826Y933107D01*
X114855Y933144D01*
X114876Y933206D01*
X114907Y933265D01*
X114915Y933319D01*
X114927Y933356D01*
X114926Y933396D01*
X114934Y933450D01*
X114934Y934900D01*
X114923Y934965D01*
X114921Y935031D01*
X114903Y935074D01*
X114895Y935121D01*
X114861Y935178D01*
X114836Y935239D01*
X114805Y935273D01*
X114780Y935314D01*
X114729Y935356D01*
X114685Y935404D01*
X114643Y935426D01*
X114606Y935456D01*
X114544Y935477D01*
X114485Y935507D01*
X114431Y935515D01*
X114394Y935527D01*
X114354Y935526D01*
X114300Y935534D01*
X75826Y935534D01*
X75084Y936276D01*
X75084Y981424D01*
X75826Y982166D01*
X114300Y982166D01*
X114365Y982177D01*
X114431Y982179D01*
X114474Y982197D01*
X114521Y982205D01*
X114578Y982239D01*
X114638Y982264D01*
X114673Y982295D01*
X114714Y982319D01*
X114756Y982371D01*
X114804Y982415D01*
X114826Y982457D01*
X114855Y982494D01*
X114876Y982556D01*
X114907Y982615D01*
X114915Y982669D01*
X114927Y982706D01*
X114926Y982745D01*
X114934Y982800D01*
X114934Y983616D01*
X215266Y983616D01*
X215266Y946150D01*
X215277Y946085D01*
X215279Y946019D01*
X215297Y945976D01*
X215305Y945929D01*
X215339Y945872D01*
X215364Y945812D01*
X215395Y945777D01*
X215420Y945736D01*
X215471Y945695D01*
X215515Y945646D01*
X215557Y945624D01*
X215594Y945595D01*
X215656Y945574D01*
X215715Y945543D01*
X215769Y945535D01*
X215806Y945523D01*
X215846Y945524D01*
X215900Y945516D01*
X247650Y945516D01*
X247715Y945527D01*
X247781Y945529D01*
X247824Y945547D01*
X247871Y945555D01*
X247928Y945589D01*
X247988Y945614D01*
X248023Y945645D01*
X248064Y945670D01*
X248106Y945721D01*
X248154Y945765D01*
X248176Y945807D01*
X248205Y945844D01*
X248226Y945906D01*
X248257Y945965D01*
X248265Y946019D01*
X248277Y946056D01*
X248276Y946096D01*
X248284Y946150D01*
X248284Y996950D01*
X248277Y996992D01*
X248279Y997034D01*
X248257Y997101D01*
X248245Y997171D01*
X248223Y997207D01*
X248210Y997248D01*
X248156Y997321D01*
X248130Y997364D01*
X248114Y997377D01*
X248098Y997399D01*
X246683Y998814D01*
X246649Y998838D01*
X246620Y998869D01*
X246557Y998901D01*
X246499Y998942D01*
X246458Y998952D01*
X246420Y998972D01*
X246331Y998985D01*
X246282Y998998D01*
X246261Y998995D01*
X246235Y998999D01*
X1635Y998999D01*
X1570Y998988D01*
X1504Y998986D01*
X1461Y998968D01*
X1414Y998960D01*
X1357Y998926D01*
X1297Y998901D01*
X1262Y998870D01*
X1221Y998845D01*
X1179Y998794D01*
X1131Y998750D01*
X1109Y998708D01*
X1080Y998671D01*
X1059Y998609D01*
X1028Y998550D01*
X1020Y998496D01*
X1008Y998459D01*
X1009Y998419D01*
X1001Y998365D01*
X1001Y935212D01*
X1012Y935147D01*
X1014Y935081D01*
X1032Y935038D01*
X1040Y934991D01*
X1074Y934934D01*
X1099Y934874D01*
X1130Y934839D01*
X1155Y934798D01*
X1206Y934756D01*
X1250Y934708D01*
X1292Y934686D01*
X1329Y934657D01*
X1391Y934636D01*
X1450Y934605D01*
X1504Y934597D01*
X1541Y934585D01*
X1581Y934586D01*
X1635Y934578D01*
X57617Y934578D01*
X58278Y933917D01*
X58278Y933450D01*
X58289Y933385D01*
X58291Y933319D01*
X58309Y933276D01*
X58317Y933229D01*
X58351Y933172D01*
X58376Y933112D01*
X58407Y933077D01*
X58432Y933036D01*
X58483Y932995D01*
X58527Y932946D01*
X58569Y932924D01*
X58606Y932895D01*
X58668Y932874D01*
X58727Y932843D01*
X58781Y932835D01*
X58818Y932823D01*
X58858Y932824D01*
X58912Y932816D01*
X114300Y932816D01*
X114365Y932827D01*
G37*
G36*
X180013Y922652D02*
X180013Y922652D01*
X180016Y922651D01*
X180099Y922688D01*
X180998Y923587D01*
X180999Y923588D01*
X181000Y923588D01*
X181017Y923634D01*
X181035Y923678D01*
X181035Y923679D01*
X181035Y923680D01*
X181015Y923724D01*
X180995Y923768D01*
X180994Y923769D01*
X180994Y923770D01*
X180909Y923802D01*
X147224Y923802D01*
X135029Y935997D01*
X135026Y935999D01*
X135025Y936002D01*
X134940Y936034D01*
X125826Y936034D01*
X125084Y936776D01*
X125084Y942824D01*
X125826Y943566D01*
X135374Y943566D01*
X135805Y943135D01*
X135808Y943133D01*
X135810Y943130D01*
X135895Y943098D01*
X137256Y943098D01*
X149919Y930435D01*
X149922Y930433D01*
X149923Y930430D01*
X150008Y930398D01*
X213984Y930398D01*
X213985Y930398D01*
X213986Y930398D01*
X214030Y930417D01*
X214075Y930436D01*
X214075Y930437D01*
X214076Y930438D01*
X214093Y930483D01*
X214110Y930528D01*
X214110Y930529D01*
X214110Y930530D01*
X214073Y930613D01*
X212602Y932084D01*
X212602Y947516D01*
X213962Y948876D01*
X213964Y948879D01*
X213967Y948880D01*
X213999Y948965D01*
X213999Y982223D01*
X213999Y982225D01*
X213999Y982227D01*
X213979Y982270D01*
X213961Y982314D01*
X213959Y982315D01*
X213958Y982317D01*
X213873Y982349D01*
X211531Y982349D01*
X211530Y982349D01*
X211529Y982349D01*
X211485Y982330D01*
X211441Y982311D01*
X211440Y982310D01*
X211439Y982309D01*
X211423Y982264D01*
X211405Y982219D01*
X211406Y982218D01*
X211405Y982217D01*
X211442Y982134D01*
X212086Y981490D01*
X212086Y936210D01*
X210600Y934724D01*
X152620Y934724D01*
X148594Y938750D01*
X148594Y978950D01*
X151097Y981453D01*
X151778Y982134D01*
X151778Y982135D01*
X151779Y982135D01*
X151797Y982180D01*
X151815Y982225D01*
X151814Y982226D01*
X151815Y982227D01*
X151794Y982272D01*
X151775Y982315D01*
X151774Y982316D01*
X151774Y982317D01*
X151689Y982349D01*
X136799Y982349D01*
X136798Y982349D01*
X136797Y982349D01*
X136753Y982330D01*
X136708Y982311D01*
X136707Y982310D01*
X136706Y982309D01*
X136690Y982264D01*
X136672Y982219D01*
X136673Y982218D01*
X136672Y982217D01*
X136709Y982134D01*
X136883Y981960D01*
X137218Y981381D01*
X137218Y981378D01*
X137391Y980735D01*
X137391Y979149D01*
X131215Y979149D01*
X131150Y979138D01*
X131085Y979136D01*
X131041Y979118D01*
X130994Y979110D01*
X130938Y979076D01*
X130877Y979051D01*
X130842Y979020D01*
X130801Y978995D01*
X130760Y978944D01*
X130711Y978900D01*
X130690Y978858D01*
X130660Y978821D01*
X130639Y978759D01*
X130609Y978700D01*
X130602Y978655D01*
X130588Y978689D01*
X130579Y978736D01*
X130546Y978793D01*
X130521Y978853D01*
X130489Y978888D01*
X130465Y978929D01*
X130414Y978971D01*
X130370Y979019D01*
X130328Y979041D01*
X130291Y979070D01*
X130229Y979091D01*
X130170Y979122D01*
X130116Y979130D01*
X130079Y979142D01*
X130039Y979141D01*
X129985Y979149D01*
X123809Y979149D01*
X123809Y980735D01*
X123982Y981378D01*
X123982Y981381D01*
X124317Y981960D01*
X124327Y981970D01*
X124491Y982134D01*
X124491Y982135D01*
X124492Y982135D01*
X124510Y982181D01*
X124528Y982225D01*
X124527Y982226D01*
X124528Y982227D01*
X124507Y982272D01*
X124488Y982315D01*
X124487Y982316D01*
X124486Y982317D01*
X124401Y982349D01*
X116327Y982349D01*
X116325Y982349D01*
X116323Y982349D01*
X116280Y982329D01*
X116236Y982311D01*
X116235Y982309D01*
X116233Y982308D01*
X116201Y982223D01*
X116201Y932663D01*
X115087Y931549D01*
X58404Y931549D01*
X58402Y931549D01*
X58400Y931549D01*
X58357Y931529D01*
X58313Y931511D01*
X58313Y931509D01*
X58311Y931508D01*
X58278Y931423D01*
X58278Y927884D01*
X58278Y927883D01*
X58278Y927882D01*
X58297Y927838D01*
X58316Y927793D01*
X58317Y927793D01*
X58318Y927792D01*
X58363Y927775D01*
X58408Y927758D01*
X58409Y927758D01*
X58410Y927758D01*
X58493Y927795D01*
X60560Y929862D01*
X63900Y929862D01*
X66262Y927500D01*
X66262Y924160D01*
X64968Y922866D01*
X64967Y922865D01*
X64966Y922865D01*
X64949Y922819D01*
X64931Y922775D01*
X64931Y922774D01*
X64931Y922773D01*
X64951Y922729D01*
X64971Y922685D01*
X64972Y922684D01*
X64972Y922683D01*
X65057Y922651D01*
X180010Y922651D01*
X180013Y922652D01*
G37*
%LPC*%
G36*
X409499Y788715D02*
X409499Y788715D01*
X408758Y789457D01*
X408758Y801430D01*
X408757Y801433D01*
X408758Y801436D01*
X408721Y801520D01*
X387128Y823112D01*
X387125Y823113D01*
X387124Y823116D01*
X387039Y823149D01*
X346592Y823149D01*
X346590Y823148D01*
X346588Y823149D01*
X346545Y823129D01*
X346501Y823111D01*
X346500Y823109D01*
X346498Y823108D01*
X346466Y823023D01*
X346466Y817600D01*
X346467Y817597D01*
X346466Y817594D01*
X346503Y817511D01*
X352608Y811406D01*
X352609Y811405D01*
X352609Y811404D01*
X352655Y811387D01*
X352699Y811369D01*
X352700Y811369D01*
X352701Y811369D01*
X352745Y811389D01*
X352789Y811408D01*
X352790Y811409D01*
X352791Y811410D01*
X352824Y811495D01*
X352824Y812739D01*
X355185Y815101D01*
X358525Y815101D01*
X360887Y812739D01*
X360887Y809399D01*
X358525Y807037D01*
X357281Y807037D01*
X357280Y807037D01*
X357279Y807037D01*
X357235Y807018D01*
X357190Y806999D01*
X357190Y806998D01*
X357189Y806998D01*
X357172Y806952D01*
X357155Y806907D01*
X357155Y806906D01*
X357155Y806905D01*
X357192Y806822D01*
X358248Y805766D01*
X358248Y804492D01*
X358248Y804490D01*
X358248Y804488D01*
X358268Y804445D01*
X358286Y804401D01*
X358288Y804400D01*
X358289Y804398D01*
X358374Y804366D01*
X364885Y804366D01*
X365816Y803435D01*
X365819Y803433D01*
X365820Y803430D01*
X365905Y803398D01*
X380652Y803398D01*
X380654Y803398D01*
X380656Y803398D01*
X380699Y803418D01*
X380743Y803436D01*
X380744Y803438D01*
X380746Y803439D01*
X380778Y803524D01*
X380778Y806850D01*
X383140Y809212D01*
X386480Y809212D01*
X388842Y806850D01*
X388842Y805864D01*
X388843Y805861D01*
X388842Y805858D01*
X388879Y805775D01*
X389166Y805488D01*
X389168Y805487D01*
X389169Y805485D01*
X389213Y805469D01*
X389257Y805451D01*
X389259Y805452D01*
X389261Y805451D01*
X389344Y805488D01*
X389631Y805775D01*
X389633Y805778D01*
X389636Y805779D01*
X389668Y805864D01*
X389668Y806850D01*
X392030Y809212D01*
X395370Y809212D01*
X397732Y806850D01*
X397732Y803510D01*
X395979Y801758D01*
X395978Y801754D01*
X395975Y801753D01*
X395942Y801668D01*
X395942Y789807D01*
X395201Y789065D01*
X379499Y789065D01*
X378758Y789807D01*
X378758Y796676D01*
X378757Y796678D01*
X378758Y796680D01*
X378738Y796723D01*
X378719Y796767D01*
X378717Y796768D01*
X378717Y796770D01*
X378632Y796802D01*
X365905Y796802D01*
X365902Y796801D01*
X365899Y796802D01*
X365816Y796765D01*
X364885Y795834D01*
X345015Y795834D01*
X343834Y797015D01*
X343834Y803185D01*
X345015Y804366D01*
X350016Y804366D01*
X350017Y804366D01*
X350018Y804366D01*
X350062Y804385D01*
X350107Y804404D01*
X350107Y804405D01*
X350108Y804406D01*
X350125Y804451D01*
X350142Y804496D01*
X350142Y804497D01*
X350142Y804498D01*
X350105Y804581D01*
X340839Y813847D01*
X340836Y813849D01*
X340835Y813852D01*
X340750Y813884D01*
X334676Y813884D01*
X333934Y814626D01*
X333934Y823023D01*
X333934Y823025D01*
X333934Y823027D01*
X333914Y823070D01*
X333896Y823114D01*
X333894Y823114D01*
X333893Y823116D01*
X333808Y823149D01*
X328915Y823149D01*
X328912Y823148D01*
X328909Y823149D01*
X328826Y823112D01*
X326503Y820789D01*
X326501Y820786D01*
X326498Y820785D01*
X326466Y820700D01*
X326466Y814626D01*
X325724Y813884D01*
X319650Y813884D01*
X319647Y813883D01*
X319644Y813884D01*
X319561Y813847D01*
X310295Y804581D01*
X310294Y804580D01*
X310293Y804580D01*
X310276Y804534D01*
X310258Y804490D01*
X310258Y804489D01*
X310258Y804488D01*
X310278Y804444D01*
X310298Y804400D01*
X310299Y804399D01*
X310299Y804398D01*
X310384Y804366D01*
X315385Y804366D01*
X316566Y803185D01*
X316566Y797015D01*
X315385Y795834D01*
X295515Y795834D01*
X294334Y797015D01*
X294334Y803185D01*
X295515Y804366D01*
X302026Y804366D01*
X302028Y804366D01*
X302030Y804366D01*
X302073Y804386D01*
X302117Y804404D01*
X302118Y804406D01*
X302120Y804407D01*
X302152Y804492D01*
X302152Y805766D01*
X313897Y817511D01*
X313899Y817514D01*
X313902Y817515D01*
X313934Y817600D01*
X313934Y823674D01*
X314676Y824416D01*
X320750Y824416D01*
X320753Y824417D01*
X320756Y824416D01*
X320839Y824453D01*
X326131Y829745D01*
X389823Y829745D01*
X391792Y827776D01*
X416638Y802930D01*
X416641Y802928D01*
X416642Y802925D01*
X416727Y802893D01*
X428701Y802893D01*
X429442Y802151D01*
X429442Y789457D01*
X428701Y788715D01*
X409499Y788715D01*
G37*
%LPD*%
%LPC*%
G36*
X379499Y865265D02*
X379499Y865265D01*
X378758Y866007D01*
X378758Y868930D01*
X378757Y868932D01*
X378758Y868934D01*
X378738Y868977D01*
X378719Y869021D01*
X378717Y869022D01*
X378717Y869024D01*
X378632Y869056D01*
X377230Y869056D01*
X374055Y872231D01*
X374052Y872233D01*
X374051Y872236D01*
X373966Y872268D01*
X372980Y872268D01*
X370618Y874630D01*
X370618Y877970D01*
X371051Y878403D01*
X371052Y878404D01*
X371053Y878404D01*
X371070Y878449D01*
X371088Y878494D01*
X371088Y878495D01*
X371088Y878496D01*
X371067Y878541D01*
X371048Y878584D01*
X371047Y878585D01*
X371047Y878586D01*
X370962Y878618D01*
X367900Y878618D01*
X367203Y879315D01*
X367200Y879317D01*
X367199Y879320D01*
X367114Y879352D01*
X365905Y879352D01*
X365902Y879351D01*
X365899Y879352D01*
X365816Y879315D01*
X364885Y878384D01*
X345015Y878384D01*
X343834Y879565D01*
X343834Y885735D01*
X345015Y886916D01*
X350016Y886916D01*
X350017Y886916D01*
X350018Y886916D01*
X350062Y886935D01*
X350107Y886954D01*
X350107Y886955D01*
X350108Y886956D01*
X350125Y887001D01*
X350142Y887046D01*
X350142Y887047D01*
X350142Y887048D01*
X350105Y887131D01*
X340839Y896397D01*
X340836Y896399D01*
X340835Y896402D01*
X340750Y896434D01*
X334676Y896434D01*
X333934Y897176D01*
X333934Y904128D01*
X333934Y904129D01*
X333934Y904130D01*
X333915Y904174D01*
X333896Y904219D01*
X333895Y904220D01*
X333894Y904221D01*
X333849Y904237D01*
X333804Y904255D01*
X333803Y904254D01*
X333802Y904255D01*
X333719Y904218D01*
X327903Y898402D01*
X326592Y898402D01*
X326590Y898402D01*
X326588Y898402D01*
X326545Y898382D01*
X326501Y898364D01*
X326500Y898362D01*
X326498Y898361D01*
X326466Y898276D01*
X326466Y897176D01*
X325724Y896434D01*
X319650Y896434D01*
X319647Y896433D01*
X319644Y896434D01*
X319561Y896397D01*
X310295Y887131D01*
X310294Y887130D01*
X310293Y887130D01*
X310276Y887084D01*
X310258Y887040D01*
X310258Y887039D01*
X310258Y887038D01*
X310278Y886994D01*
X310298Y886950D01*
X310299Y886949D01*
X310299Y886948D01*
X310384Y886916D01*
X315385Y886916D01*
X316566Y885735D01*
X316566Y879565D01*
X315385Y878384D01*
X295515Y878384D01*
X294334Y879565D01*
X294334Y885735D01*
X295515Y886916D01*
X302026Y886916D01*
X302028Y886916D01*
X302030Y886916D01*
X302073Y886936D01*
X302117Y886954D01*
X302118Y886956D01*
X302120Y886957D01*
X302152Y887042D01*
X302152Y888316D01*
X313897Y900061D01*
X313899Y900064D01*
X313902Y900065D01*
X313934Y900150D01*
X313934Y906224D01*
X314676Y906966D01*
X325724Y906966D01*
X326343Y906347D01*
X326345Y906346D01*
X326346Y906344D01*
X326390Y906328D01*
X326434Y906310D01*
X326436Y906311D01*
X326438Y906310D01*
X326521Y906347D01*
X330500Y910326D01*
X332469Y912295D01*
X396173Y912295D01*
X416638Y891830D01*
X416641Y891828D01*
X416642Y891825D01*
X416727Y891793D01*
X428701Y891793D01*
X429442Y891051D01*
X429442Y878357D01*
X428701Y877615D01*
X409499Y877615D01*
X408758Y878357D01*
X408758Y890330D01*
X408757Y890333D01*
X408758Y890336D01*
X408721Y890420D01*
X393478Y905662D01*
X393475Y905663D01*
X393474Y905666D01*
X393389Y905699D01*
X346592Y905699D01*
X346590Y905698D01*
X346588Y905699D01*
X346545Y905679D01*
X346501Y905661D01*
X346500Y905659D01*
X346498Y905658D01*
X346466Y905573D01*
X346466Y900150D01*
X346467Y900147D01*
X346466Y900144D01*
X346503Y900061D01*
X356279Y890285D01*
X358248Y888316D01*
X358248Y887042D01*
X358248Y887040D01*
X358248Y887038D01*
X358268Y886995D01*
X358286Y886951D01*
X358288Y886950D01*
X358289Y886948D01*
X358374Y886916D01*
X364885Y886916D01*
X365816Y885985D01*
X365819Y885983D01*
X365820Y885980D01*
X365905Y885948D01*
X367114Y885948D01*
X367117Y885949D01*
X367120Y885948D01*
X367203Y885985D01*
X367900Y886682D01*
X371240Y886682D01*
X371937Y885985D01*
X371940Y885983D01*
X371941Y885980D01*
X372026Y885948D01*
X378420Y885948D01*
X379622Y884746D01*
X379625Y884744D01*
X379626Y884741D01*
X379711Y884709D01*
X380697Y884709D01*
X383059Y882347D01*
X383059Y881361D01*
X383060Y881358D01*
X383059Y881355D01*
X383096Y881272D01*
X384888Y879480D01*
X384891Y879478D01*
X384892Y879475D01*
X384977Y879443D01*
X395201Y879443D01*
X395942Y878701D01*
X395942Y866007D01*
X395201Y865265D01*
X379499Y865265D01*
G37*
%LPD*%
G36*
X493530Y923937D02*
X493530Y923937D01*
X493596Y923939D01*
X493639Y923957D01*
X493686Y923965D01*
X493743Y923999D01*
X493803Y924024D01*
X493838Y924055D01*
X493879Y924080D01*
X493921Y924131D01*
X493969Y924175D01*
X493991Y924217D01*
X494020Y924254D01*
X494041Y924316D01*
X494072Y924375D01*
X494080Y924429D01*
X494092Y924466D01*
X494091Y924506D01*
X494099Y924560D01*
X494099Y956310D01*
X494088Y956375D01*
X494086Y956441D01*
X494068Y956484D01*
X494060Y956531D01*
X494026Y956588D01*
X494001Y956648D01*
X493970Y956683D01*
X493945Y956724D01*
X493894Y956766D01*
X493850Y956814D01*
X493808Y956836D01*
X493771Y956865D01*
X493709Y956886D01*
X493650Y956917D01*
X493596Y956925D01*
X493559Y956937D01*
X493519Y956936D01*
X493465Y956944D01*
X463550Y956944D01*
X463485Y956933D01*
X463419Y956931D01*
X463376Y956913D01*
X463329Y956905D01*
X463272Y956871D01*
X463212Y956846D01*
X463177Y956815D01*
X463136Y956790D01*
X463095Y956739D01*
X463046Y956695D01*
X463024Y956653D01*
X462995Y956616D01*
X462974Y956554D01*
X462943Y956495D01*
X462935Y956441D01*
X462923Y956404D01*
X462924Y956369D01*
X462923Y956366D01*
X462923Y956358D01*
X462916Y956310D01*
X462916Y924560D01*
X462927Y924495D01*
X462929Y924429D01*
X462947Y924386D01*
X462955Y924339D01*
X462989Y924282D01*
X463014Y924222D01*
X463045Y924187D01*
X463070Y924146D01*
X463121Y924105D01*
X463165Y924056D01*
X463207Y924034D01*
X463244Y924005D01*
X463306Y923984D01*
X463365Y923953D01*
X463419Y923945D01*
X463456Y923933D01*
X463496Y923934D01*
X463550Y923926D01*
X493465Y923926D01*
X493530Y923937D01*
G37*
G36*
X159908Y936006D02*
X159908Y936006D01*
X160027Y936013D01*
X160065Y936026D01*
X160106Y936031D01*
X160216Y936074D01*
X160329Y936111D01*
X160364Y936133D01*
X160401Y936148D01*
X160497Y936218D01*
X160598Y936281D01*
X160626Y936311D01*
X160659Y936334D01*
X160735Y936426D01*
X160816Y936513D01*
X160836Y936548D01*
X160861Y936579D01*
X160912Y936687D01*
X160970Y936791D01*
X160980Y936831D01*
X160997Y936867D01*
X161019Y936984D01*
X161049Y937099D01*
X161053Y937160D01*
X161057Y937180D01*
X161055Y937200D01*
X161059Y937260D01*
X161059Y938301D01*
X167370Y938301D01*
X167488Y938316D01*
X167607Y938323D01*
X167645Y938335D01*
X167685Y938341D01*
X167796Y938384D01*
X167909Y938421D01*
X167943Y938443D01*
X167981Y938458D01*
X168077Y938527D01*
X168178Y938591D01*
X168206Y938621D01*
X168238Y938644D01*
X168314Y938736D01*
X168396Y938823D01*
X168415Y938858D01*
X168441Y938889D01*
X168461Y938933D01*
X168537Y938988D01*
X168638Y939051D01*
X168666Y939081D01*
X168699Y939105D01*
X168775Y939196D01*
X168856Y939283D01*
X168876Y939318D01*
X168901Y939350D01*
X168952Y939457D01*
X169010Y939562D01*
X169020Y939601D01*
X169037Y939637D01*
X169059Y939754D01*
X169089Y939870D01*
X169093Y939930D01*
X169097Y939950D01*
X169095Y939970D01*
X169099Y940030D01*
X169099Y952270D01*
X169084Y952388D01*
X169077Y952507D01*
X169075Y952514D01*
X169089Y952570D01*
X169093Y952630D01*
X169097Y952650D01*
X169095Y952670D01*
X169099Y952730D01*
X169099Y964970D01*
X169084Y965088D01*
X169077Y965207D01*
X169075Y965214D01*
X169089Y965270D01*
X169093Y965330D01*
X169097Y965350D01*
X169095Y965370D01*
X169099Y965430D01*
X169099Y977670D01*
X169084Y977788D01*
X169077Y977907D01*
X169064Y977945D01*
X169059Y977985D01*
X169016Y978096D01*
X168979Y978209D01*
X168957Y978243D01*
X168942Y978281D01*
X168873Y978377D01*
X168809Y978478D01*
X168779Y978506D01*
X168756Y978538D01*
X168664Y978614D01*
X168577Y978696D01*
X168542Y978715D01*
X168511Y978741D01*
X168467Y978761D01*
X168412Y978837D01*
X168349Y978938D01*
X168319Y978966D01*
X168295Y978999D01*
X168204Y979075D01*
X168117Y979156D01*
X168082Y979176D01*
X168050Y979201D01*
X167943Y979252D01*
X167838Y979310D01*
X167799Y979320D01*
X167763Y979337D01*
X167646Y979359D01*
X167530Y979389D01*
X167470Y979393D01*
X167450Y979397D01*
X167430Y979395D01*
X167370Y979399D01*
X161059Y979399D01*
X161059Y980440D01*
X161044Y980558D01*
X161037Y980677D01*
X161024Y980715D01*
X161019Y980756D01*
X160976Y980866D01*
X160939Y980979D01*
X160917Y981014D01*
X160902Y981051D01*
X160833Y981147D01*
X160769Y981248D01*
X160739Y981276D01*
X160716Y981309D01*
X160624Y981385D01*
X160537Y981466D01*
X160502Y981486D01*
X160471Y981511D01*
X160363Y981562D01*
X160259Y981620D01*
X160219Y981630D01*
X160183Y981647D01*
X160066Y981669D01*
X159951Y981699D01*
X159891Y981703D01*
X159871Y981707D01*
X159850Y981705D01*
X159790Y981709D01*
X153670Y981709D01*
X153572Y981697D01*
X153473Y981694D01*
X153415Y981677D01*
X153354Y981669D01*
X153262Y981633D01*
X153167Y981605D01*
X153115Y981575D01*
X153059Y981552D01*
X152979Y981494D01*
X152893Y981444D01*
X152818Y981378D01*
X152801Y981366D01*
X152794Y981356D01*
X152773Y981338D01*
X150233Y978798D01*
X150172Y978719D01*
X150104Y978647D01*
X150075Y978594D01*
X150038Y978546D01*
X149998Y978455D01*
X149950Y978369D01*
X149935Y978310D01*
X149911Y978254D01*
X149896Y978156D01*
X149871Y978061D01*
X149865Y977965D01*
X149863Y977957D01*
X149864Y977954D01*
X149861Y977940D01*
X149863Y977928D01*
X149861Y977900D01*
X149861Y939800D01*
X149873Y939702D01*
X149876Y939603D01*
X149884Y939577D01*
X149885Y939562D01*
X149895Y939530D01*
X149901Y939484D01*
X149937Y939392D01*
X149965Y939297D01*
X149977Y939276D01*
X149983Y939259D01*
X150002Y939229D01*
X150018Y939189D01*
X150076Y939109D01*
X150126Y939023D01*
X150147Y939000D01*
X150153Y938990D01*
X150167Y938977D01*
X150192Y938948D01*
X150204Y938931D01*
X150214Y938924D01*
X150233Y938903D01*
X152773Y936363D01*
X152851Y936302D01*
X152923Y936234D01*
X152976Y936205D01*
X153024Y936168D01*
X153115Y936128D01*
X153201Y936080D01*
X153260Y936065D01*
X153316Y936041D01*
X153414Y936026D01*
X153509Y936001D01*
X153609Y935995D01*
X153630Y935991D01*
X153642Y935993D01*
X153670Y935991D01*
X159790Y935991D01*
X159908Y936006D01*
G37*
G36*
X159908Y847106D02*
X159908Y847106D01*
X160027Y847113D01*
X160065Y847126D01*
X160106Y847131D01*
X160216Y847174D01*
X160329Y847211D01*
X160364Y847233D01*
X160401Y847248D01*
X160497Y847318D01*
X160598Y847381D01*
X160626Y847411D01*
X160659Y847434D01*
X160735Y847526D01*
X160816Y847613D01*
X160836Y847648D01*
X160861Y847679D01*
X160912Y847787D01*
X160970Y847891D01*
X160980Y847931D01*
X160997Y847967D01*
X161019Y848084D01*
X161049Y848199D01*
X161053Y848260D01*
X161057Y848280D01*
X161055Y848300D01*
X161059Y848360D01*
X161059Y849401D01*
X167370Y849401D01*
X167488Y849416D01*
X167607Y849423D01*
X167645Y849435D01*
X167685Y849441D01*
X167796Y849484D01*
X167909Y849521D01*
X167943Y849543D01*
X167981Y849558D01*
X168077Y849627D01*
X168178Y849691D01*
X168206Y849721D01*
X168238Y849744D01*
X168314Y849836D01*
X168396Y849923D01*
X168415Y849958D01*
X168441Y849989D01*
X168461Y850033D01*
X168537Y850088D01*
X168638Y850151D01*
X168666Y850181D01*
X168699Y850205D01*
X168775Y850296D01*
X168856Y850383D01*
X168876Y850418D01*
X168901Y850450D01*
X168952Y850557D01*
X169010Y850662D01*
X169020Y850701D01*
X169037Y850737D01*
X169059Y850854D01*
X169089Y850970D01*
X169093Y851030D01*
X169097Y851050D01*
X169095Y851070D01*
X169099Y851130D01*
X169099Y863370D01*
X169084Y863488D01*
X169077Y863607D01*
X169075Y863614D01*
X169089Y863670D01*
X169093Y863730D01*
X169097Y863750D01*
X169095Y863770D01*
X169099Y863830D01*
X169099Y876070D01*
X169084Y876188D01*
X169077Y876307D01*
X169075Y876314D01*
X169089Y876370D01*
X169093Y876430D01*
X169097Y876450D01*
X169095Y876470D01*
X169099Y876530D01*
X169099Y888770D01*
X169084Y888888D01*
X169077Y889007D01*
X169064Y889045D01*
X169059Y889085D01*
X169016Y889196D01*
X168979Y889309D01*
X168957Y889343D01*
X168942Y889381D01*
X168873Y889477D01*
X168809Y889578D01*
X168779Y889606D01*
X168756Y889638D01*
X168664Y889714D01*
X168577Y889796D01*
X168542Y889815D01*
X168511Y889841D01*
X168467Y889861D01*
X168412Y889937D01*
X168349Y890038D01*
X168319Y890066D01*
X168295Y890099D01*
X168204Y890175D01*
X168117Y890256D01*
X168082Y890276D01*
X168050Y890301D01*
X167943Y890352D01*
X167838Y890410D01*
X167799Y890420D01*
X167763Y890437D01*
X167646Y890459D01*
X167530Y890489D01*
X167470Y890493D01*
X167450Y890497D01*
X167430Y890495D01*
X167370Y890499D01*
X161059Y890499D01*
X161059Y891540D01*
X161044Y891658D01*
X161037Y891777D01*
X161024Y891815D01*
X161019Y891856D01*
X160976Y891966D01*
X160939Y892079D01*
X160917Y892114D01*
X160902Y892151D01*
X160833Y892247D01*
X160769Y892348D01*
X160739Y892376D01*
X160716Y892409D01*
X160624Y892485D01*
X160537Y892566D01*
X160502Y892586D01*
X160471Y892611D01*
X160363Y892662D01*
X160259Y892720D01*
X160219Y892730D01*
X160183Y892747D01*
X160066Y892769D01*
X159951Y892799D01*
X159891Y892803D01*
X159871Y892807D01*
X159850Y892805D01*
X159790Y892809D01*
X153670Y892809D01*
X153572Y892797D01*
X153473Y892794D01*
X153415Y892777D01*
X153354Y892769D01*
X153262Y892733D01*
X153167Y892705D01*
X153115Y892675D01*
X153059Y892652D01*
X152979Y892594D01*
X152893Y892544D01*
X152818Y892478D01*
X152801Y892466D01*
X152794Y892456D01*
X152773Y892438D01*
X150233Y889898D01*
X150172Y889819D01*
X150104Y889747D01*
X150075Y889694D01*
X150038Y889646D01*
X149998Y889555D01*
X149950Y889469D01*
X149935Y889410D01*
X149911Y889354D01*
X149896Y889256D01*
X149871Y889161D01*
X149865Y889065D01*
X149863Y889057D01*
X149864Y889054D01*
X149861Y889040D01*
X149863Y889028D01*
X149861Y889000D01*
X149861Y850900D01*
X149873Y850802D01*
X149876Y850703D01*
X149884Y850677D01*
X149885Y850662D01*
X149895Y850630D01*
X149901Y850584D01*
X149937Y850492D01*
X149965Y850397D01*
X149977Y850376D01*
X149983Y850359D01*
X150002Y850329D01*
X150018Y850289D01*
X150076Y850209D01*
X150126Y850123D01*
X150147Y850100D01*
X150153Y850090D01*
X150167Y850077D01*
X150192Y850048D01*
X150204Y850031D01*
X150214Y850024D01*
X150233Y850003D01*
X152773Y847463D01*
X152851Y847402D01*
X152923Y847334D01*
X152976Y847305D01*
X153024Y847268D01*
X153115Y847228D01*
X153201Y847180D01*
X153260Y847165D01*
X153316Y847141D01*
X153414Y847126D01*
X153509Y847101D01*
X153609Y847095D01*
X153630Y847091D01*
X153642Y847093D01*
X153670Y847091D01*
X159790Y847091D01*
X159908Y847106D01*
G37*
G36*
X159908Y758206D02*
X159908Y758206D01*
X160027Y758213D01*
X160065Y758226D01*
X160106Y758231D01*
X160216Y758274D01*
X160329Y758311D01*
X160364Y758333D01*
X160401Y758348D01*
X160497Y758418D01*
X160598Y758481D01*
X160626Y758511D01*
X160659Y758534D01*
X160735Y758626D01*
X160816Y758713D01*
X160836Y758748D01*
X160861Y758779D01*
X160912Y758887D01*
X160970Y758991D01*
X160980Y759031D01*
X160997Y759067D01*
X161019Y759184D01*
X161049Y759299D01*
X161053Y759360D01*
X161057Y759380D01*
X161055Y759400D01*
X161059Y759460D01*
X161059Y760501D01*
X167370Y760501D01*
X167488Y760516D01*
X167607Y760523D01*
X167645Y760535D01*
X167685Y760541D01*
X167796Y760584D01*
X167909Y760621D01*
X167943Y760643D01*
X167981Y760658D01*
X168077Y760727D01*
X168178Y760791D01*
X168206Y760821D01*
X168238Y760844D01*
X168314Y760936D01*
X168396Y761023D01*
X168415Y761058D01*
X168441Y761089D01*
X168461Y761133D01*
X168537Y761188D01*
X168638Y761251D01*
X168666Y761281D01*
X168699Y761305D01*
X168775Y761396D01*
X168856Y761483D01*
X168876Y761518D01*
X168901Y761550D01*
X168952Y761657D01*
X169010Y761762D01*
X169020Y761801D01*
X169037Y761837D01*
X169059Y761954D01*
X169089Y762070D01*
X169093Y762130D01*
X169097Y762150D01*
X169095Y762170D01*
X169099Y762230D01*
X169099Y774470D01*
X169084Y774588D01*
X169077Y774707D01*
X169075Y774714D01*
X169089Y774770D01*
X169093Y774830D01*
X169097Y774850D01*
X169095Y774870D01*
X169099Y774930D01*
X169099Y787170D01*
X169084Y787288D01*
X169077Y787407D01*
X169075Y787414D01*
X169089Y787470D01*
X169093Y787530D01*
X169097Y787550D01*
X169095Y787570D01*
X169099Y787630D01*
X169099Y799870D01*
X169084Y799988D01*
X169077Y800107D01*
X169064Y800145D01*
X169059Y800185D01*
X169016Y800296D01*
X168979Y800409D01*
X168957Y800443D01*
X168942Y800481D01*
X168873Y800577D01*
X168809Y800678D01*
X168779Y800706D01*
X168756Y800738D01*
X168664Y800814D01*
X168577Y800896D01*
X168542Y800915D01*
X168511Y800941D01*
X168467Y800961D01*
X168412Y801037D01*
X168349Y801138D01*
X168319Y801166D01*
X168295Y801199D01*
X168204Y801275D01*
X168117Y801356D01*
X168082Y801376D01*
X168050Y801401D01*
X167943Y801452D01*
X167838Y801510D01*
X167799Y801520D01*
X167763Y801537D01*
X167646Y801559D01*
X167530Y801589D01*
X167470Y801593D01*
X167450Y801597D01*
X167430Y801595D01*
X167370Y801599D01*
X161059Y801599D01*
X161059Y802640D01*
X161044Y802758D01*
X161037Y802877D01*
X161024Y802915D01*
X161019Y802956D01*
X160976Y803066D01*
X160939Y803179D01*
X160917Y803214D01*
X160902Y803251D01*
X160833Y803347D01*
X160769Y803448D01*
X160739Y803476D01*
X160716Y803509D01*
X160624Y803585D01*
X160537Y803666D01*
X160502Y803686D01*
X160471Y803711D01*
X160363Y803762D01*
X160259Y803820D01*
X160219Y803830D01*
X160183Y803847D01*
X160066Y803869D01*
X159951Y803899D01*
X159891Y803903D01*
X159871Y803907D01*
X159850Y803905D01*
X159790Y803909D01*
X153670Y803909D01*
X153572Y803897D01*
X153473Y803894D01*
X153415Y803877D01*
X153354Y803869D01*
X153262Y803833D01*
X153167Y803805D01*
X153115Y803775D01*
X153059Y803752D01*
X152979Y803694D01*
X152893Y803644D01*
X152818Y803578D01*
X152801Y803566D01*
X152794Y803556D01*
X152773Y803538D01*
X150233Y800998D01*
X150172Y800919D01*
X150104Y800847D01*
X150075Y800794D01*
X150038Y800746D01*
X149998Y800655D01*
X149950Y800569D01*
X149935Y800510D01*
X149911Y800454D01*
X149896Y800356D01*
X149871Y800261D01*
X149865Y800165D01*
X149863Y800157D01*
X149864Y800154D01*
X149861Y800140D01*
X149863Y800128D01*
X149861Y800100D01*
X149861Y765687D01*
X149878Y765549D01*
X149891Y765410D01*
X149898Y765391D01*
X149901Y765371D01*
X149952Y765242D01*
X149999Y765111D01*
X150010Y765094D01*
X150018Y765075D01*
X150099Y764963D01*
X150177Y764848D01*
X150193Y764834D01*
X150204Y764818D01*
X150312Y764729D01*
X150416Y764637D01*
X150434Y764628D01*
X150449Y764615D01*
X150575Y764556D01*
X150699Y764493D01*
X150719Y764488D01*
X150737Y764480D01*
X150873Y764454D01*
X151009Y764423D01*
X151030Y764424D01*
X151050Y764420D01*
X151188Y764429D01*
X151327Y764433D01*
X151347Y764438D01*
X151367Y764440D01*
X151499Y764482D01*
X151633Y764521D01*
X151650Y764531D01*
X151669Y764538D01*
X151787Y764612D01*
X151907Y764683D01*
X151928Y764701D01*
X151938Y764708D01*
X151952Y764723D01*
X151996Y764762D01*
X155340Y764762D01*
X157702Y762400D01*
X157702Y759460D01*
X157717Y759342D01*
X157724Y759223D01*
X157736Y759185D01*
X157741Y759144D01*
X157785Y759034D01*
X157822Y758921D01*
X157844Y758886D01*
X157859Y758849D01*
X157928Y758753D01*
X157992Y758652D01*
X158022Y758624D01*
X158045Y758591D01*
X158137Y758516D01*
X158224Y758434D01*
X158259Y758414D01*
X158290Y758389D01*
X158398Y758338D01*
X158502Y758280D01*
X158541Y758270D01*
X158578Y758253D01*
X158695Y758231D01*
X158810Y758201D01*
X158870Y758197D01*
X158890Y758193D01*
X158911Y758195D01*
X158971Y758191D01*
X159790Y758191D01*
X159908Y758206D01*
G37*
%LPC*%
G36*
X258680Y872268D02*
X258680Y872268D01*
X256318Y874630D01*
X256318Y877970D01*
X258680Y880332D01*
X259666Y880332D01*
X259669Y880333D01*
X259672Y880332D01*
X259755Y880369D01*
X281681Y902295D01*
X281683Y902298D01*
X281686Y902299D01*
X281718Y902384D01*
X281718Y903370D01*
X284080Y905732D01*
X285066Y905732D01*
X285069Y905733D01*
X285072Y905732D01*
X285155Y905769D01*
X300731Y921345D01*
X300733Y921348D01*
X300736Y921349D01*
X300768Y921434D01*
X300768Y922420D01*
X303130Y924782D01*
X306470Y924782D01*
X308832Y922420D01*
X308832Y919080D01*
X306470Y916718D01*
X305484Y916718D01*
X305481Y916717D01*
X305478Y916718D01*
X305395Y916681D01*
X289819Y901105D01*
X289817Y901102D01*
X289814Y901101D01*
X289782Y901016D01*
X289782Y900030D01*
X287420Y897668D01*
X286434Y897668D01*
X286431Y897667D01*
X286428Y897668D01*
X286345Y897631D01*
X264419Y875705D01*
X264417Y875702D01*
X264414Y875701D01*
X264382Y875616D01*
X264382Y874630D01*
X262020Y872268D01*
X258680Y872268D01*
G37*
%LPD*%
%LPC*%
G36*
X269676Y774284D02*
X269676Y774284D01*
X268934Y775026D01*
X268934Y787074D01*
X269676Y787816D01*
X275100Y787816D01*
X275103Y787817D01*
X275106Y787816D01*
X275189Y787853D01*
X278034Y790698D01*
X294495Y790698D01*
X294498Y790699D01*
X294501Y790698D01*
X294584Y790735D01*
X295515Y791666D01*
X315385Y791666D01*
X316566Y790485D01*
X316566Y784315D01*
X315385Y783134D01*
X295515Y783134D01*
X294584Y784065D01*
X294581Y784067D01*
X294580Y784070D01*
X294495Y784102D01*
X281592Y784102D01*
X281590Y784102D01*
X281588Y784102D01*
X281545Y784082D01*
X281501Y784064D01*
X281500Y784062D01*
X281498Y784061D01*
X281466Y783976D01*
X281466Y775026D01*
X280724Y774284D01*
X269676Y774284D01*
G37*
%LPD*%
%LPC*%
G36*
X276026Y748884D02*
X276026Y748884D01*
X275284Y749626D01*
X275284Y761674D01*
X276026Y762416D01*
X287074Y762416D01*
X287816Y761674D01*
X287816Y759074D01*
X287816Y759072D01*
X287816Y759070D01*
X287836Y759027D01*
X287854Y758983D01*
X287856Y758982D01*
X287857Y758980D01*
X287942Y758948D01*
X294208Y758948D01*
X294210Y758948D01*
X294212Y758948D01*
X294255Y758968D01*
X294299Y758986D01*
X294300Y758988D01*
X294302Y758989D01*
X294334Y759074D01*
X294334Y765085D01*
X295515Y766266D01*
X315385Y766266D01*
X316566Y765085D01*
X316566Y758915D01*
X315385Y757734D01*
X305900Y757734D01*
X305897Y757733D01*
X305894Y757734D01*
X305811Y757697D01*
X302435Y754321D01*
X300466Y752352D01*
X287942Y752352D01*
X287940Y752352D01*
X287938Y752352D01*
X287895Y752332D01*
X287851Y752314D01*
X287850Y752312D01*
X287848Y752311D01*
X287816Y752226D01*
X287816Y749626D01*
X287074Y748884D01*
X276026Y748884D01*
G37*
%LPD*%
%LPC*%
G36*
X370440Y839248D02*
X370440Y839248D01*
X368078Y841610D01*
X368078Y844950D01*
X368775Y845647D01*
X368777Y845650D01*
X368780Y845651D01*
X368812Y845736D01*
X368812Y862182D01*
X368811Y862185D01*
X368812Y862188D01*
X368775Y862271D01*
X365213Y865834D01*
X365211Y865835D01*
X365210Y865837D01*
X365165Y865853D01*
X365121Y865871D01*
X365119Y865870D01*
X365117Y865871D01*
X365034Y865834D01*
X364885Y865684D01*
X345015Y865684D01*
X343834Y866865D01*
X343834Y873035D01*
X345015Y874216D01*
X364885Y874216D01*
X365816Y873285D01*
X365819Y873283D01*
X365820Y873280D01*
X365905Y873248D01*
X367126Y873248D01*
X375408Y864966D01*
X375408Y845736D01*
X375409Y845733D01*
X375408Y845730D01*
X375445Y845647D01*
X376142Y844950D01*
X376142Y841610D01*
X373780Y839248D01*
X370440Y839248D01*
G37*
%LPD*%
%LPC*%
G36*
X370440Y760508D02*
X370440Y760508D01*
X368078Y762870D01*
X368078Y763856D01*
X368077Y763859D01*
X368078Y763862D01*
X368041Y763945D01*
X367556Y764430D01*
X367555Y764431D01*
X367555Y764432D01*
X367510Y764449D01*
X367465Y764467D01*
X367464Y764467D01*
X367463Y764467D01*
X367418Y764446D01*
X367375Y764427D01*
X367375Y764426D01*
X367374Y764426D01*
X367341Y764341D01*
X367341Y762253D01*
X355203Y762253D01*
X355203Y767541D01*
X364141Y767541D01*
X364142Y767541D01*
X364143Y767541D01*
X364187Y767560D01*
X364232Y767579D01*
X364232Y767580D01*
X364233Y767581D01*
X364250Y767626D01*
X364267Y767671D01*
X364267Y767672D01*
X364267Y767673D01*
X364230Y767756D01*
X361589Y770397D01*
X361586Y770399D01*
X361585Y770402D01*
X361500Y770434D01*
X345015Y770434D01*
X343834Y771615D01*
X343834Y777785D01*
X345015Y778966D01*
X364885Y778966D01*
X366066Y777785D01*
X366066Y775300D01*
X366067Y775297D01*
X366066Y775294D01*
X366103Y775211D01*
X372705Y768609D01*
X372708Y768607D01*
X372709Y768604D01*
X372794Y768572D01*
X373780Y768572D01*
X376142Y766210D01*
X376142Y762870D01*
X373780Y760508D01*
X370440Y760508D01*
G37*
%LPD*%
%LPC*%
G36*
X345015Y783134D02*
X345015Y783134D01*
X343834Y784315D01*
X343834Y790485D01*
X345015Y791666D01*
X364885Y791666D01*
X365816Y790735D01*
X365819Y790733D01*
X365820Y790730D01*
X365905Y790698D01*
X366882Y790698D01*
X366885Y790699D01*
X366888Y790698D01*
X366971Y790735D01*
X368041Y791805D01*
X368043Y791808D01*
X368046Y791809D01*
X368078Y791894D01*
X368078Y792880D01*
X370440Y795242D01*
X373780Y795242D01*
X376142Y792880D01*
X376142Y789540D01*
X373780Y787178D01*
X372794Y787178D01*
X372791Y787177D01*
X372788Y787178D01*
X372705Y787141D01*
X369666Y784102D01*
X365905Y784102D01*
X365902Y784101D01*
X365899Y784102D01*
X365816Y784065D01*
X364885Y783134D01*
X345015Y783134D01*
G37*
%LPD*%
%LPC*%
G36*
X337647Y848138D02*
X337647Y848138D01*
X335285Y850500D01*
X335285Y853840D01*
X337647Y856202D01*
X338633Y856202D01*
X338636Y856203D01*
X338639Y856202D01*
X338722Y856239D01*
X343031Y860548D01*
X343995Y860548D01*
X343998Y860549D01*
X344001Y860548D01*
X344084Y860585D01*
X345015Y861516D01*
X364885Y861516D01*
X366066Y860335D01*
X366066Y854165D01*
X364885Y852984D01*
X345015Y852984D01*
X344994Y853005D01*
X344992Y853006D01*
X344991Y853008D01*
X344947Y853024D01*
X344903Y853042D01*
X344901Y853041D01*
X344899Y853042D01*
X344816Y853005D01*
X343386Y851575D01*
X343384Y851572D01*
X343382Y851571D01*
X343349Y851486D01*
X343349Y850500D01*
X340987Y848138D01*
X337647Y848138D01*
G37*
%LPD*%
%LPC*%
G36*
X345015Y941884D02*
X345015Y941884D01*
X343834Y943065D01*
X343834Y949235D01*
X345015Y950416D01*
X364885Y950416D01*
X366066Y949235D01*
X366066Y943065D01*
X364885Y941884D01*
X345015Y941884D01*
G37*
%LPD*%
%LPC*%
G36*
X345015Y954584D02*
X345015Y954584D01*
X343834Y955765D01*
X343834Y961935D01*
X345015Y963116D01*
X364885Y963116D01*
X366066Y961935D01*
X366066Y955765D01*
X364885Y954584D01*
X345015Y954584D01*
G37*
%LPD*%
%LPC*%
G36*
X387603Y943999D02*
X387603Y943999D01*
X387603Y952110D01*
X395011Y952110D01*
X395657Y951937D01*
X396237Y951602D01*
X396710Y951129D01*
X397044Y950550D01*
X397217Y949904D01*
X397217Y943999D01*
X387603Y943999D01*
G37*
%LPD*%
%LPC*%
G36*
X387603Y855099D02*
X387603Y855099D01*
X387603Y863210D01*
X395011Y863210D01*
X395657Y863037D01*
X396237Y862702D01*
X396710Y862229D01*
X397044Y861650D01*
X397217Y861004D01*
X397217Y855099D01*
X387603Y855099D01*
G37*
%LPD*%
%LPC*%
G36*
X387603Y778899D02*
X387603Y778899D01*
X387603Y787010D01*
X395011Y787010D01*
X395657Y786837D01*
X396237Y786502D01*
X396710Y786029D01*
X397044Y785450D01*
X397217Y784804D01*
X397217Y778899D01*
X387603Y778899D01*
G37*
%LPD*%
%LPC*%
G36*
X377483Y778899D02*
X377483Y778899D01*
X377483Y784804D01*
X377656Y785450D01*
X377990Y786029D01*
X378463Y786502D01*
X379043Y786837D01*
X379689Y787010D01*
X387097Y787010D01*
X387097Y778899D01*
X377483Y778899D01*
G37*
%LPD*%
%LPC*%
G36*
X377483Y855099D02*
X377483Y855099D01*
X377483Y861004D01*
X377656Y861650D01*
X377990Y862229D01*
X378463Y862702D01*
X379043Y863037D01*
X379689Y863210D01*
X387097Y863210D01*
X387097Y855099D01*
X377483Y855099D01*
G37*
%LPD*%
%LPC*%
G36*
X377483Y943999D02*
X377483Y943999D01*
X377483Y949904D01*
X377656Y950550D01*
X377990Y951129D01*
X378463Y951602D01*
X379043Y951937D01*
X379689Y952110D01*
X387097Y952110D01*
X387097Y943999D01*
X377483Y943999D01*
G37*
%LPD*%
%LPC*%
G36*
X387603Y935382D02*
X387603Y935382D01*
X387603Y943493D01*
X397217Y943493D01*
X397217Y937588D01*
X397044Y936942D01*
X396710Y936363D01*
X396237Y935890D01*
X395657Y935555D01*
X395011Y935382D01*
X387603Y935382D01*
G37*
%LPD*%
%LPC*%
G36*
X387603Y846482D02*
X387603Y846482D01*
X387603Y854593D01*
X397217Y854593D01*
X397217Y848688D01*
X397044Y848042D01*
X396710Y847463D01*
X396237Y846990D01*
X395657Y846655D01*
X395011Y846482D01*
X387603Y846482D01*
G37*
%LPD*%
%LPC*%
G36*
X387603Y770282D02*
X387603Y770282D01*
X387603Y778393D01*
X397217Y778393D01*
X397217Y772488D01*
X397044Y771842D01*
X396710Y771263D01*
X396237Y770790D01*
X395657Y770455D01*
X395011Y770282D01*
X387603Y770282D01*
G37*
%LPD*%
%LPC*%
G36*
X379689Y935382D02*
X379689Y935382D01*
X379043Y935555D01*
X378463Y935890D01*
X377990Y936363D01*
X377656Y936942D01*
X377483Y937588D01*
X377483Y943493D01*
X387097Y943493D01*
X387097Y935382D01*
X379689Y935382D01*
G37*
%LPD*%
%LPC*%
G36*
X379689Y846482D02*
X379689Y846482D01*
X379043Y846655D01*
X378463Y846990D01*
X377990Y847463D01*
X377656Y848042D01*
X377483Y848688D01*
X377483Y854593D01*
X387097Y854593D01*
X387097Y846482D01*
X379689Y846482D01*
G37*
%LPD*%
%LPC*%
G36*
X379689Y770282D02*
X379689Y770282D01*
X379043Y770455D01*
X378463Y770790D01*
X377990Y771263D01*
X377656Y771842D01*
X377483Y772488D01*
X377483Y778393D01*
X387097Y778393D01*
X387097Y770282D01*
X379689Y770282D01*
G37*
%LPD*%
%LPC*%
G36*
X355203Y933703D02*
X355203Y933703D01*
X355203Y938991D01*
X364483Y938991D01*
X365320Y938766D01*
X366071Y938333D01*
X366683Y937721D01*
X367116Y936970D01*
X367341Y936133D01*
X367341Y933703D01*
X355203Y933703D01*
G37*
%LPD*%
%LPC*%
G36*
X355203Y844803D02*
X355203Y844803D01*
X355203Y850091D01*
X364483Y850091D01*
X365320Y849866D01*
X366071Y849433D01*
X366683Y848821D01*
X367116Y848070D01*
X367341Y847233D01*
X367341Y844803D01*
X355203Y844803D01*
G37*
%LPD*%
%LPC*%
G36*
X342559Y933703D02*
X342559Y933703D01*
X342559Y936133D01*
X342784Y936970D01*
X343217Y937721D01*
X343829Y938333D01*
X344580Y938766D01*
X345417Y938991D01*
X354697Y938991D01*
X354697Y933703D01*
X342559Y933703D01*
G37*
%LPD*%
%LPC*%
G36*
X342559Y844803D02*
X342559Y844803D01*
X342559Y847233D01*
X342784Y848070D01*
X343217Y848821D01*
X343829Y849433D01*
X344580Y849866D01*
X345417Y850091D01*
X354697Y850091D01*
X354697Y844803D01*
X342559Y844803D01*
G37*
%LPD*%
%LPC*%
G36*
X342559Y762253D02*
X342559Y762253D01*
X342559Y764683D01*
X342784Y765520D01*
X343217Y766271D01*
X343829Y766883D01*
X344580Y767316D01*
X345417Y767541D01*
X354697Y767541D01*
X354697Y762253D01*
X342559Y762253D01*
G37*
%LPD*%
%LPC*%
G36*
X345417Y927909D02*
X345417Y927909D01*
X344580Y928134D01*
X343829Y928567D01*
X343217Y929179D01*
X342784Y929930D01*
X342559Y930767D01*
X342559Y933197D01*
X354697Y933197D01*
X354697Y927909D01*
X345417Y927909D01*
G37*
%LPD*%
%LPC*%
G36*
X345417Y756459D02*
X345417Y756459D01*
X344580Y756684D01*
X343829Y757117D01*
X343217Y757729D01*
X342784Y758480D01*
X342559Y759317D01*
X342559Y761747D01*
X354697Y761747D01*
X354697Y756459D01*
X345417Y756459D01*
G37*
%LPD*%
%LPC*%
G36*
X355203Y756459D02*
X355203Y756459D01*
X355203Y761747D01*
X367341Y761747D01*
X367341Y759317D01*
X367116Y758480D01*
X366683Y757729D01*
X366071Y757117D01*
X365320Y756684D01*
X364483Y756459D01*
X355203Y756459D01*
G37*
%LPD*%
%LPC*%
G36*
X355203Y927909D02*
X355203Y927909D01*
X355203Y933197D01*
X367341Y933197D01*
X367341Y930767D01*
X367116Y929930D01*
X366683Y929179D01*
X366071Y928567D01*
X365320Y928134D01*
X364483Y927909D01*
X355203Y927909D01*
G37*
%LPD*%
%LPC*%
G36*
X60560Y934498D02*
X60560Y934498D01*
X58198Y936860D01*
X58198Y940200D01*
X60560Y942562D01*
X63900Y942562D01*
X66262Y940200D01*
X66262Y936860D01*
X63900Y934498D01*
X60560Y934498D01*
G37*
%LPD*%
%LPC*%
G36*
X59290Y878618D02*
X59290Y878618D01*
X56928Y880980D01*
X56928Y884320D01*
X59290Y886682D01*
X62630Y886682D01*
X64992Y884320D01*
X64992Y880980D01*
X62630Y878618D01*
X59290Y878618D01*
G37*
%LPD*%
%LPC*%
G36*
X233280Y872268D02*
X233280Y872268D01*
X230918Y874630D01*
X230918Y877970D01*
X233280Y880332D01*
X236620Y880332D01*
X238982Y877970D01*
X238982Y874630D01*
X236620Y872268D01*
X233280Y872268D01*
G37*
%LPD*%
%LPC*%
G36*
X60560Y959898D02*
X60560Y959898D01*
X58198Y962260D01*
X58198Y965600D01*
X60560Y967962D01*
X63900Y967962D01*
X66262Y965600D01*
X66262Y962260D01*
X63900Y959898D01*
X60560Y959898D01*
G37*
%LPD*%
%LPC*%
G36*
X60560Y750348D02*
X60560Y750348D01*
X58198Y752710D01*
X58198Y756050D01*
X60560Y758412D01*
X63900Y758412D01*
X66262Y756050D01*
X66262Y752710D01*
X63900Y750348D01*
X60560Y750348D01*
G37*
%LPD*%
%LPC*%
G36*
X60560Y777018D02*
X60560Y777018D01*
X58198Y779380D01*
X58198Y782720D01*
X60560Y785082D01*
X63900Y785082D01*
X66262Y782720D01*
X66262Y779380D01*
X63900Y777018D01*
X60560Y777018D01*
G37*
%LPD*%
%LPC*%
G36*
X60560Y792258D02*
X60560Y792258D01*
X58198Y794620D01*
X58198Y797960D01*
X60560Y800322D01*
X63900Y800322D01*
X66262Y797960D01*
X66262Y794620D01*
X63900Y792258D01*
X60560Y792258D01*
G37*
%LPD*%
%LPC*%
G36*
X60560Y945928D02*
X60560Y945928D01*
X58198Y948290D01*
X58198Y951630D01*
X60560Y953992D01*
X63900Y953992D01*
X66262Y951630D01*
X66262Y948290D01*
X63900Y945928D01*
X60560Y945928D01*
G37*
%LPD*%
%LPC*%
G36*
X60560Y764318D02*
X60560Y764318D01*
X58198Y766680D01*
X58198Y770020D01*
X60560Y772382D01*
X63900Y772382D01*
X66262Y770020D01*
X66262Y766680D01*
X63900Y764318D01*
X60560Y764318D01*
G37*
%LPD*%
%LPC*%
G36*
X60560Y849408D02*
X60560Y849408D01*
X58198Y851770D01*
X58198Y855110D01*
X60560Y857472D01*
X63900Y857472D01*
X66262Y855110D01*
X66262Y851770D01*
X63900Y849408D01*
X60560Y849408D01*
G37*
%LPD*%
%LPC*%
G36*
X60560Y865918D02*
X60560Y865918D01*
X58198Y868280D01*
X58198Y871620D01*
X60560Y873982D01*
X63900Y873982D01*
X66262Y871620D01*
X66262Y868280D01*
X63900Y865918D01*
X60560Y865918D01*
G37*
%LPD*%
%LPC*%
G36*
X487280Y808768D02*
X487280Y808768D01*
X484918Y811130D01*
X484918Y814470D01*
X487280Y816832D01*
X490620Y816832D01*
X492982Y814470D01*
X492982Y811130D01*
X490620Y808768D01*
X487280Y808768D01*
G37*
%LPD*%
%LPC*%
G36*
X338690Y872268D02*
X338690Y872268D01*
X336328Y874630D01*
X336328Y877970D01*
X338690Y880332D01*
X342030Y880332D01*
X344392Y877970D01*
X344392Y874630D01*
X342030Y872268D01*
X338690Y872268D01*
G37*
%LPD*%
%LPC*%
G36*
X449180Y980218D02*
X449180Y980218D01*
X446818Y982580D01*
X446818Y985920D01*
X449180Y988282D01*
X452520Y988282D01*
X454882Y985920D01*
X454882Y982580D01*
X452520Y980218D01*
X449180Y980218D01*
G37*
%LPD*%
%LPC*%
G36*
X362630Y888968D02*
X362630Y888968D01*
X360268Y891330D01*
X360268Y894670D01*
X362630Y897032D01*
X365970Y897032D01*
X368332Y894670D01*
X368332Y891330D01*
X365970Y888968D01*
X362630Y888968D01*
G37*
%LPD*%
%LPC*%
G36*
X487280Y821468D02*
X487280Y821468D01*
X484918Y823830D01*
X484918Y827170D01*
X487280Y829532D01*
X490620Y829532D01*
X492982Y827170D01*
X492982Y823830D01*
X490620Y821468D01*
X487280Y821468D01*
G37*
%LPD*%
%LPC*%
G36*
X161059Y877799D02*
X161059Y877799D01*
X161059Y879634D01*
X161232Y880281D01*
X161567Y880860D01*
X162040Y881333D01*
X162417Y881551D01*
X162523Y881631D01*
X162631Y881706D01*
X162649Y881727D01*
X162670Y881743D01*
X162753Y881847D01*
X162839Y881947D01*
X162851Y881971D01*
X162868Y881992D01*
X162922Y882113D01*
X162981Y882232D01*
X162986Y882258D01*
X162997Y882283D01*
X163019Y882413D01*
X163047Y882543D01*
X163046Y882570D01*
X163051Y882596D01*
X163040Y882728D01*
X163034Y882860D01*
X163026Y882886D01*
X163024Y882913D01*
X162981Y883038D01*
X162942Y883165D01*
X162929Y883188D01*
X162920Y883214D01*
X162846Y883324D01*
X162778Y883437D01*
X162759Y883456D01*
X162744Y883479D01*
X162645Y883567D01*
X162551Y883660D01*
X162519Y883681D01*
X162508Y883692D01*
X162488Y883702D01*
X162417Y883749D01*
X162040Y883967D01*
X161567Y884440D01*
X161232Y885019D01*
X161059Y885666D01*
X161059Y887501D01*
X166101Y887501D01*
X166101Y877799D01*
X161059Y877799D01*
G37*
%LPD*%
%LPC*%
G36*
X161059Y966699D02*
X161059Y966699D01*
X161059Y968534D01*
X161232Y969181D01*
X161567Y969760D01*
X162040Y970233D01*
X162417Y970451D01*
X162523Y970531D01*
X162631Y970606D01*
X162649Y970627D01*
X162670Y970643D01*
X162753Y970747D01*
X162839Y970847D01*
X162851Y970871D01*
X162868Y970892D01*
X162922Y971013D01*
X162981Y971132D01*
X162986Y971158D01*
X162997Y971183D01*
X163019Y971313D01*
X163047Y971443D01*
X163046Y971470D01*
X163051Y971496D01*
X163040Y971628D01*
X163034Y971760D01*
X163026Y971786D01*
X163024Y971813D01*
X162981Y971938D01*
X162942Y972065D01*
X162929Y972088D01*
X162920Y972114D01*
X162846Y972224D01*
X162778Y972337D01*
X162759Y972356D01*
X162744Y972379D01*
X162645Y972467D01*
X162551Y972560D01*
X162519Y972581D01*
X162508Y972592D01*
X162488Y972602D01*
X162417Y972649D01*
X162040Y972867D01*
X161567Y973340D01*
X161232Y973919D01*
X161059Y974566D01*
X161059Y976401D01*
X166101Y976401D01*
X166101Y966699D01*
X161059Y966699D01*
G37*
%LPD*%
%LPC*%
G36*
X161059Y852399D02*
X161059Y852399D01*
X161059Y854234D01*
X161232Y854881D01*
X161567Y855460D01*
X162040Y855933D01*
X162417Y856151D01*
X162523Y856231D01*
X162631Y856306D01*
X162649Y856327D01*
X162670Y856343D01*
X162753Y856447D01*
X162839Y856547D01*
X162851Y856571D01*
X162868Y856592D01*
X162922Y856713D01*
X162981Y856832D01*
X162986Y856858D01*
X162997Y856883D01*
X163020Y857013D01*
X163047Y857143D01*
X163046Y857170D01*
X163051Y857196D01*
X163040Y857328D01*
X163034Y857460D01*
X163026Y857486D01*
X163024Y857513D01*
X162981Y857638D01*
X162943Y857765D01*
X162929Y857788D01*
X162920Y857814D01*
X162847Y857924D01*
X162778Y858037D01*
X162759Y858056D01*
X162744Y858079D01*
X162646Y858167D01*
X162551Y858260D01*
X162519Y858281D01*
X162508Y858292D01*
X162489Y858302D01*
X162417Y858349D01*
X162040Y858567D01*
X161567Y859040D01*
X161232Y859619D01*
X161059Y860266D01*
X161059Y862101D01*
X166101Y862101D01*
X166101Y852399D01*
X161059Y852399D01*
G37*
%LPD*%
%LPC*%
G36*
X161059Y941299D02*
X161059Y941299D01*
X161059Y943134D01*
X161232Y943781D01*
X161567Y944360D01*
X162040Y944833D01*
X162417Y945051D01*
X162523Y945131D01*
X162631Y945206D01*
X162649Y945227D01*
X162670Y945243D01*
X162753Y945347D01*
X162839Y945447D01*
X162851Y945471D01*
X162868Y945492D01*
X162922Y945613D01*
X162981Y945732D01*
X162986Y945758D01*
X162997Y945783D01*
X163020Y945913D01*
X163047Y946043D01*
X163046Y946070D01*
X163051Y946096D01*
X163040Y946228D01*
X163034Y946360D01*
X163026Y946386D01*
X163024Y946413D01*
X162981Y946538D01*
X162943Y946665D01*
X162929Y946688D01*
X162920Y946714D01*
X162847Y946824D01*
X162778Y946937D01*
X162759Y946956D01*
X162744Y946979D01*
X162646Y947067D01*
X162551Y947160D01*
X162519Y947181D01*
X162508Y947192D01*
X162489Y947202D01*
X162417Y947249D01*
X162040Y947467D01*
X161567Y947940D01*
X161232Y948519D01*
X161059Y949166D01*
X161059Y951001D01*
X166101Y951001D01*
X166101Y941299D01*
X161059Y941299D01*
G37*
%LPD*%
%LPC*%
G36*
X161059Y763499D02*
X161059Y763499D01*
X161059Y765334D01*
X161232Y765981D01*
X161567Y766560D01*
X162040Y767033D01*
X162417Y767251D01*
X162523Y767331D01*
X162631Y767406D01*
X162649Y767427D01*
X162670Y767443D01*
X162753Y767547D01*
X162839Y767647D01*
X162851Y767671D01*
X162868Y767692D01*
X162922Y767813D01*
X162981Y767932D01*
X162986Y767958D01*
X162997Y767983D01*
X163020Y768113D01*
X163047Y768243D01*
X163046Y768270D01*
X163051Y768296D01*
X163040Y768428D01*
X163034Y768560D01*
X163026Y768586D01*
X163024Y768613D01*
X162981Y768738D01*
X162943Y768865D01*
X162929Y768888D01*
X162920Y768914D01*
X162847Y769024D01*
X162778Y769137D01*
X162759Y769156D01*
X162744Y769179D01*
X162646Y769267D01*
X162551Y769360D01*
X162519Y769381D01*
X162508Y769392D01*
X162489Y769402D01*
X162417Y769449D01*
X162040Y769667D01*
X161567Y770140D01*
X161232Y770719D01*
X161059Y771366D01*
X161059Y773201D01*
X166101Y773201D01*
X166101Y763499D01*
X161059Y763499D01*
G37*
%LPD*%
%LPC*%
G36*
X161059Y953999D02*
X161059Y953999D01*
X161059Y955834D01*
X161232Y956481D01*
X161567Y957060D01*
X162040Y957533D01*
X162417Y957751D01*
X162523Y957831D01*
X162631Y957906D01*
X162649Y957927D01*
X162670Y957943D01*
X162753Y958047D01*
X162839Y958147D01*
X162851Y958171D01*
X162868Y958192D01*
X162922Y958313D01*
X162981Y958432D01*
X162986Y958458D01*
X162997Y958483D01*
X163020Y958613D01*
X163047Y958743D01*
X163046Y958770D01*
X163051Y958796D01*
X163040Y958928D01*
X163034Y959060D01*
X163026Y959086D01*
X163024Y959113D01*
X162981Y959238D01*
X162943Y959365D01*
X162929Y959388D01*
X162920Y959414D01*
X162847Y959524D01*
X162778Y959637D01*
X162759Y959656D01*
X162744Y959679D01*
X162646Y959767D01*
X162551Y959860D01*
X162519Y959881D01*
X162508Y959892D01*
X162489Y959902D01*
X162417Y959949D01*
X162040Y960167D01*
X161567Y960640D01*
X161232Y961219D01*
X161059Y961866D01*
X161059Y963701D01*
X166101Y963701D01*
X166101Y953999D01*
X161059Y953999D01*
G37*
%LPD*%
%LPC*%
G36*
X161059Y788899D02*
X161059Y788899D01*
X161059Y790734D01*
X161232Y791381D01*
X161567Y791960D01*
X162040Y792433D01*
X162417Y792651D01*
X162523Y792731D01*
X162631Y792806D01*
X162649Y792827D01*
X162670Y792843D01*
X162753Y792947D01*
X162839Y793047D01*
X162851Y793071D01*
X162868Y793092D01*
X162922Y793213D01*
X162981Y793332D01*
X162986Y793358D01*
X162997Y793383D01*
X163020Y793513D01*
X163047Y793643D01*
X163046Y793670D01*
X163051Y793696D01*
X163040Y793828D01*
X163034Y793960D01*
X163026Y793986D01*
X163024Y794013D01*
X162981Y794138D01*
X162943Y794265D01*
X162929Y794288D01*
X162920Y794314D01*
X162847Y794424D01*
X162778Y794537D01*
X162759Y794556D01*
X162744Y794579D01*
X162646Y794667D01*
X162551Y794760D01*
X162519Y794781D01*
X162508Y794792D01*
X162489Y794802D01*
X162417Y794849D01*
X162040Y795067D01*
X161567Y795540D01*
X161232Y796119D01*
X161059Y796766D01*
X161059Y798601D01*
X166101Y798601D01*
X166101Y788899D01*
X161059Y788899D01*
G37*
%LPD*%
%LPC*%
G36*
X161059Y776199D02*
X161059Y776199D01*
X161059Y778034D01*
X161232Y778681D01*
X161567Y779260D01*
X162040Y779733D01*
X162417Y779951D01*
X162523Y780031D01*
X162631Y780106D01*
X162649Y780127D01*
X162670Y780143D01*
X162753Y780247D01*
X162839Y780347D01*
X162851Y780371D01*
X162868Y780392D01*
X162922Y780513D01*
X162981Y780632D01*
X162986Y780658D01*
X162997Y780683D01*
X163020Y780813D01*
X163047Y780943D01*
X163046Y780970D01*
X163051Y780996D01*
X163040Y781128D01*
X163034Y781260D01*
X163026Y781286D01*
X163024Y781313D01*
X162981Y781438D01*
X162943Y781565D01*
X162929Y781588D01*
X162920Y781614D01*
X162847Y781724D01*
X162778Y781837D01*
X162759Y781856D01*
X162744Y781879D01*
X162646Y781967D01*
X162551Y782060D01*
X162519Y782081D01*
X162508Y782092D01*
X162489Y782102D01*
X162417Y782149D01*
X162040Y782367D01*
X161567Y782840D01*
X161232Y783419D01*
X161059Y784066D01*
X161059Y785901D01*
X166101Y785901D01*
X166101Y776199D01*
X161059Y776199D01*
G37*
%LPD*%
%LPC*%
G36*
X161059Y865099D02*
X161059Y865099D01*
X161059Y866934D01*
X161232Y867581D01*
X161567Y868160D01*
X162040Y868633D01*
X162417Y868851D01*
X162523Y868931D01*
X162631Y869006D01*
X162649Y869027D01*
X162670Y869043D01*
X162753Y869147D01*
X162839Y869247D01*
X162851Y869271D01*
X162868Y869292D01*
X162922Y869413D01*
X162981Y869532D01*
X162986Y869558D01*
X162997Y869583D01*
X163020Y869713D01*
X163047Y869843D01*
X163046Y869870D01*
X163051Y869896D01*
X163040Y870028D01*
X163034Y870160D01*
X163026Y870186D01*
X163024Y870213D01*
X162981Y870338D01*
X162943Y870465D01*
X162929Y870488D01*
X162920Y870514D01*
X162847Y870624D01*
X162778Y870737D01*
X162759Y870756D01*
X162744Y870779D01*
X162646Y870867D01*
X162551Y870960D01*
X162519Y870981D01*
X162508Y870992D01*
X162489Y871002D01*
X162417Y871049D01*
X162040Y871267D01*
X161567Y871740D01*
X161232Y872319D01*
X161059Y872966D01*
X161059Y874801D01*
X166101Y874801D01*
X166101Y865099D01*
X161059Y865099D01*
G37*
%LPD*%
%LPC*%
G36*
X130853Y894041D02*
X130853Y894041D01*
X135185Y894041D01*
X135831Y893868D01*
X136410Y893533D01*
X136883Y893060D01*
X137218Y892481D01*
X137391Y891835D01*
X137391Y890249D01*
X131215Y890249D01*
X131150Y890238D01*
X131085Y890236D01*
X131041Y890218D01*
X130994Y890210D01*
X130938Y890176D01*
X130877Y890151D01*
X130853Y890130D01*
X130853Y894041D01*
G37*
%LPD*%
%LPC*%
G36*
X130328Y890141D02*
X130328Y890141D01*
X130291Y890170D01*
X130229Y890191D01*
X130170Y890222D01*
X130116Y890230D01*
X130079Y890242D01*
X130039Y890241D01*
X129985Y890249D01*
X123809Y890249D01*
X123809Y891835D01*
X123982Y892481D01*
X124317Y893060D01*
X124790Y893533D01*
X125369Y893868D01*
X126015Y894041D01*
X130347Y894041D01*
X130347Y890131D01*
X130328Y890141D01*
G37*
%LPD*%
%LPC*%
G36*
X126015Y947459D02*
X126015Y947459D01*
X125369Y947632D01*
X124790Y947967D01*
X124317Y948440D01*
X123982Y949019D01*
X123809Y949665D01*
X123809Y951251D01*
X129985Y951251D01*
X130050Y951262D01*
X130115Y951264D01*
X130159Y951282D01*
X130206Y951290D01*
X130262Y951324D01*
X130323Y951349D01*
X130347Y951370D01*
X130347Y947459D01*
X126015Y947459D01*
G37*
%LPD*%
%LPC*%
G36*
X126015Y858559D02*
X126015Y858559D01*
X125369Y858732D01*
X124790Y859067D01*
X124317Y859540D01*
X123982Y860119D01*
X123809Y860765D01*
X123809Y862351D01*
X129985Y862351D01*
X130050Y862362D01*
X130115Y862364D01*
X130159Y862382D01*
X130206Y862390D01*
X130262Y862424D01*
X130323Y862449D01*
X130347Y862470D01*
X130347Y858559D01*
X126015Y858559D01*
G37*
%LPD*%
%LPC*%
G36*
X126015Y769659D02*
X126015Y769659D01*
X125369Y769832D01*
X124790Y770167D01*
X124317Y770640D01*
X123989Y771207D01*
X123982Y771219D01*
X123809Y771865D01*
X123809Y773451D01*
X129985Y773451D01*
X130050Y773462D01*
X130115Y773464D01*
X130159Y773482D01*
X130206Y773490D01*
X130262Y773524D01*
X130323Y773549D01*
X130347Y773570D01*
X130347Y769659D01*
X126015Y769659D01*
G37*
%LPD*%
%LPC*%
G36*
X130853Y769659D02*
X130853Y769659D01*
X130853Y773569D01*
X130872Y773559D01*
X130909Y773530D01*
X130971Y773508D01*
X131030Y773478D01*
X131084Y773470D01*
X131121Y773458D01*
X131161Y773459D01*
X131215Y773451D01*
X137391Y773451D01*
X137391Y773132D01*
X137391Y771865D01*
X137342Y771685D01*
X137218Y771219D01*
X137211Y771207D01*
X136883Y770640D01*
X136410Y770167D01*
X135831Y769832D01*
X135185Y769659D01*
X130853Y769659D01*
G37*
%LPD*%
%LPC*%
G36*
X130853Y858559D02*
X130853Y858559D01*
X130853Y862469D01*
X130872Y862459D01*
X130909Y862430D01*
X130971Y862408D01*
X131030Y862378D01*
X131084Y862370D01*
X131121Y862358D01*
X131161Y862359D01*
X131215Y862351D01*
X137391Y862351D01*
X137391Y862032D01*
X137391Y860765D01*
X137218Y860119D01*
X136883Y859540D01*
X136410Y859067D01*
X135831Y858732D01*
X135185Y858559D01*
X130853Y858559D01*
G37*
%LPD*%
%LPC*%
G36*
X130853Y947459D02*
X130853Y947459D01*
X130853Y951369D01*
X130872Y951359D01*
X130909Y951330D01*
X130971Y951308D01*
X131030Y951278D01*
X131084Y951270D01*
X131121Y951258D01*
X131161Y951259D01*
X131215Y951251D01*
X137391Y951251D01*
X137391Y950830D01*
X137391Y949665D01*
X137218Y949019D01*
X136883Y948440D01*
X136410Y947967D01*
X135831Y947632D01*
X135185Y947459D01*
X130853Y947459D01*
G37*
%LPD*%
%LPC*%
G36*
X131849Y864849D02*
X131849Y864849D01*
X131849Y868641D01*
X135185Y868641D01*
X135831Y868468D01*
X136410Y868133D01*
X136883Y867660D01*
X137218Y867081D01*
X137391Y866435D01*
X137391Y864849D01*
X131849Y864849D01*
G37*
%LPD*%
%LPC*%
G36*
X131849Y953749D02*
X131849Y953749D01*
X131849Y957541D01*
X135185Y957541D01*
X135831Y957368D01*
X136410Y957033D01*
X136883Y956560D01*
X137218Y955981D01*
X137391Y955335D01*
X137391Y953749D01*
X131849Y953749D01*
G37*
%LPD*%
%LPC*%
G36*
X131849Y877549D02*
X131849Y877549D01*
X131849Y881341D01*
X135185Y881341D01*
X135831Y881168D01*
X136410Y880833D01*
X136883Y880360D01*
X137218Y879781D01*
X137391Y879135D01*
X137391Y877549D01*
X131849Y877549D01*
G37*
%LPD*%
%LPC*%
G36*
X131849Y775949D02*
X131849Y775949D01*
X131849Y779741D01*
X135185Y779741D01*
X135831Y779568D01*
X136410Y779233D01*
X136883Y778760D01*
X137218Y778181D01*
X137391Y777535D01*
X137391Y775949D01*
X131849Y775949D01*
G37*
%LPD*%
%LPC*%
G36*
X131849Y966449D02*
X131849Y966449D01*
X131849Y970241D01*
X135185Y970241D01*
X135831Y970068D01*
X136410Y969733D01*
X136883Y969260D01*
X137218Y968681D01*
X137391Y968035D01*
X137391Y966449D01*
X131849Y966449D01*
G37*
%LPD*%
%LPC*%
G36*
X131849Y788649D02*
X131849Y788649D01*
X131849Y792441D01*
X135185Y792441D01*
X135831Y792268D01*
X136410Y791933D01*
X136883Y791460D01*
X137218Y790881D01*
X137391Y790235D01*
X137391Y788649D01*
X131849Y788649D01*
G37*
%LPD*%
%LPC*%
G36*
X123809Y953749D02*
X123809Y953749D01*
X123809Y955335D01*
X123982Y955981D01*
X124317Y956560D01*
X124790Y957033D01*
X125369Y957368D01*
X126015Y957541D01*
X129351Y957541D01*
X129351Y953749D01*
X123809Y953749D01*
G37*
%LPD*%
%LPC*%
G36*
X123809Y966449D02*
X123809Y966449D01*
X123809Y968035D01*
X123982Y968681D01*
X124317Y969260D01*
X124790Y969733D01*
X125369Y970068D01*
X126015Y970241D01*
X129351Y970241D01*
X129351Y966449D01*
X123809Y966449D01*
G37*
%LPD*%
%LPC*%
G36*
X123809Y877549D02*
X123809Y877549D01*
X123809Y879135D01*
X123982Y879781D01*
X124317Y880360D01*
X124790Y880833D01*
X125369Y881168D01*
X126015Y881341D01*
X129351Y881341D01*
X129351Y877549D01*
X123809Y877549D01*
G37*
%LPD*%
%LPC*%
G36*
X123809Y775949D02*
X123809Y775949D01*
X123809Y777535D01*
X123982Y778181D01*
X124317Y778760D01*
X124790Y779233D01*
X125369Y779568D01*
X126015Y779741D01*
X129351Y779741D01*
X129351Y775949D01*
X123809Y775949D01*
G37*
%LPD*%
%LPC*%
G36*
X123809Y788649D02*
X123809Y788649D01*
X123809Y790235D01*
X123982Y790881D01*
X124317Y791460D01*
X124790Y791933D01*
X125369Y792268D01*
X126015Y792441D01*
X129351Y792441D01*
X129351Y788649D01*
X123809Y788649D01*
G37*
%LPD*%
%LPC*%
G36*
X123809Y864849D02*
X123809Y864849D01*
X123809Y866435D01*
X123982Y867081D01*
X124317Y867660D01*
X124790Y868133D01*
X125369Y868468D01*
X126015Y868641D01*
X129351Y868641D01*
X129351Y864849D01*
X123809Y864849D01*
G37*
%LPD*%
%LPC*%
G36*
X131849Y871259D02*
X131849Y871259D01*
X131849Y875051D01*
X137391Y875051D01*
X137391Y874630D01*
X137391Y873465D01*
X137342Y873285D01*
X137218Y872819D01*
X136883Y872240D01*
X136410Y871767D01*
X135831Y871432D01*
X135185Y871259D01*
X131849Y871259D01*
G37*
%LPD*%
%LPC*%
G36*
X131849Y972859D02*
X131849Y972859D01*
X131849Y976651D01*
X137391Y976651D01*
X137391Y976031D01*
X137391Y975065D01*
X137342Y974885D01*
X137218Y974419D01*
X136883Y973840D01*
X136410Y973367D01*
X135831Y973032D01*
X135185Y972859D01*
X131849Y972859D01*
G37*
%LPD*%
%LPC*%
G36*
X131849Y883959D02*
X131849Y883959D01*
X131849Y887751D01*
X137391Y887751D01*
X137391Y887131D01*
X137391Y886165D01*
X137342Y885985D01*
X137218Y885519D01*
X136883Y884940D01*
X136410Y884467D01*
X135831Y884132D01*
X135185Y883959D01*
X131849Y883959D01*
G37*
%LPD*%
%LPC*%
G36*
X131849Y782359D02*
X131849Y782359D01*
X131849Y786151D01*
X137391Y786151D01*
X137391Y785450D01*
X137391Y784565D01*
X137324Y784315D01*
X137218Y783919D01*
X136883Y783340D01*
X136410Y782867D01*
X135831Y782532D01*
X135185Y782359D01*
X131849Y782359D01*
G37*
%LPD*%
%LPC*%
G36*
X131849Y960159D02*
X131849Y960159D01*
X131849Y963951D01*
X137391Y963951D01*
X137391Y962365D01*
X137218Y961719D01*
X136883Y961140D01*
X136410Y960667D01*
X135831Y960332D01*
X135185Y960159D01*
X131849Y960159D01*
G37*
%LPD*%
%LPC*%
G36*
X131849Y795059D02*
X131849Y795059D01*
X131849Y798851D01*
X137391Y798851D01*
X137391Y797265D01*
X137218Y796619D01*
X136883Y796040D01*
X136410Y795567D01*
X135831Y795232D01*
X135185Y795059D01*
X131849Y795059D01*
G37*
%LPD*%
%LPC*%
G36*
X126015Y972859D02*
X126015Y972859D01*
X125369Y973032D01*
X124790Y973367D01*
X124317Y973840D01*
X123982Y974419D01*
X123858Y974885D01*
X123809Y975065D01*
X123809Y976651D01*
X129351Y976651D01*
X129351Y972859D01*
X126015Y972859D01*
G37*
%LPD*%
%LPC*%
G36*
X126015Y883959D02*
X126015Y883959D01*
X125369Y884132D01*
X124790Y884467D01*
X124317Y884940D01*
X123982Y885519D01*
X123858Y885985D01*
X123809Y886165D01*
X123809Y887751D01*
X129351Y887751D01*
X129351Y883959D01*
X126015Y883959D01*
G37*
%LPD*%
%LPC*%
G36*
X126015Y871259D02*
X126015Y871259D01*
X125369Y871432D01*
X124790Y871767D01*
X124317Y872240D01*
X123982Y872819D01*
X123858Y873285D01*
X123809Y873465D01*
X123809Y875051D01*
X129351Y875051D01*
X129351Y871259D01*
X126015Y871259D01*
G37*
%LPD*%
%LPC*%
G36*
X126015Y960159D02*
X126015Y960159D01*
X125369Y960332D01*
X124790Y960667D01*
X124317Y961140D01*
X123982Y961719D01*
X123858Y962185D01*
X123809Y962365D01*
X123809Y963951D01*
X129351Y963951D01*
X129351Y960159D01*
X126015Y960159D01*
G37*
%LPD*%
%LPC*%
G36*
X126015Y795059D02*
X126015Y795059D01*
X125369Y795232D01*
X124790Y795567D01*
X124317Y796040D01*
X123982Y796619D01*
X123876Y797015D01*
X123809Y797265D01*
X123809Y798851D01*
X129351Y798851D01*
X129351Y795059D01*
X126015Y795059D01*
G37*
%LPD*%
%LPC*%
G36*
X126015Y782359D02*
X126015Y782359D01*
X125369Y782532D01*
X124790Y782867D01*
X124317Y783340D01*
X123982Y783919D01*
X123876Y784315D01*
X123809Y784565D01*
X123809Y786151D01*
X129351Y786151D01*
X129351Y782359D01*
X126015Y782359D01*
G37*
%LPD*%
%LPC*%
G36*
X387349Y854845D02*
X387349Y854845D01*
X387349Y854847D01*
X387351Y854847D01*
X387351Y854845D01*
X387349Y854845D01*
G37*
%LPD*%
%LPC*%
G36*
X354949Y933449D02*
X354949Y933449D01*
X354949Y933451D01*
X354951Y933451D01*
X354951Y933449D01*
X354949Y933449D01*
G37*
%LPD*%
%LPC*%
G36*
X354949Y761999D02*
X354949Y761999D01*
X354949Y762001D01*
X354951Y762001D01*
X354951Y761999D01*
X354949Y761999D01*
G37*
%LPD*%
%LPC*%
G36*
X387349Y943745D02*
X387349Y943745D01*
X387349Y943747D01*
X387351Y943747D01*
X387351Y943745D01*
X387349Y943745D01*
G37*
%LPD*%
%LPC*%
G36*
X387349Y778645D02*
X387349Y778645D01*
X387349Y778647D01*
X387351Y778647D01*
X387351Y778645D01*
X387349Y778645D01*
G37*
%LPD*%
D10*
X387350Y796154D03*
X387350Y778646D03*
X387350Y872354D03*
X387350Y854846D03*
D11*
X419100Y884704D03*
X419100Y855196D03*
X419100Y979954D03*
X419100Y950446D03*
X419100Y795804D03*
X419100Y766296D03*
D10*
X387350Y961254D03*
X387350Y943746D03*
D12*
X340200Y901700D03*
X320200Y901700D03*
X340200Y984250D03*
X320200Y984250D03*
X340200Y819150D03*
X320200Y819150D03*
D13*
X275200Y952500D03*
X258200Y952500D03*
X275200Y920750D03*
X258200Y920750D03*
X275200Y850900D03*
X258200Y850900D03*
X275200Y825500D03*
X258200Y825500D03*
X275200Y781050D03*
X258200Y781050D03*
X281550Y755650D03*
X264550Y755650D03*
D14*
X130600Y889000D03*
X130600Y850900D03*
X130600Y876300D03*
X130600Y863600D03*
D15*
X72350Y850900D03*
X72350Y863600D03*
X72350Y876300D03*
X72350Y889000D03*
D16*
X95100Y869950D03*
D17*
X345850Y802350D02*
X364050Y802350D01*
X364050Y797850D01*
X345850Y797850D01*
X345850Y802350D01*
X345850Y799275D02*
X364050Y799275D01*
X364050Y800700D02*
X345850Y800700D01*
X345850Y802125D02*
X364050Y802125D01*
X364050Y789650D02*
X345850Y789650D01*
X364050Y789650D02*
X364050Y785150D01*
X345850Y785150D01*
X345850Y789650D01*
X345850Y786575D02*
X364050Y786575D01*
X364050Y788000D02*
X345850Y788000D01*
X345850Y789425D02*
X364050Y789425D01*
X364050Y776950D02*
X345850Y776950D01*
X364050Y776950D02*
X364050Y772450D01*
X345850Y772450D01*
X345850Y776950D01*
X345850Y773875D02*
X364050Y773875D01*
X364050Y775300D02*
X345850Y775300D01*
X345850Y776725D02*
X364050Y776725D01*
X364050Y764250D02*
X345850Y764250D01*
X364050Y764250D02*
X364050Y759750D01*
X345850Y759750D01*
X345850Y764250D01*
X345850Y761175D02*
X364050Y761175D01*
X364050Y762600D02*
X345850Y762600D01*
X345850Y764025D02*
X364050Y764025D01*
X314550Y764250D02*
X296350Y764250D01*
X314550Y764250D02*
X314550Y759750D01*
X296350Y759750D01*
X296350Y764250D01*
X296350Y761175D02*
X314550Y761175D01*
X314550Y762600D02*
X296350Y762600D01*
X296350Y764025D02*
X314550Y764025D01*
X314550Y776950D02*
X296350Y776950D01*
X314550Y776950D02*
X314550Y772450D01*
X296350Y772450D01*
X296350Y776950D01*
X296350Y773875D02*
X314550Y773875D01*
X314550Y775300D02*
X296350Y775300D01*
X296350Y776725D02*
X314550Y776725D01*
X314550Y789650D02*
X296350Y789650D01*
X314550Y789650D02*
X314550Y785150D01*
X296350Y785150D01*
X296350Y789650D01*
X296350Y786575D02*
X314550Y786575D01*
X314550Y788000D02*
X296350Y788000D01*
X296350Y789425D02*
X314550Y789425D01*
X314550Y802350D02*
X296350Y802350D01*
X314550Y802350D02*
X314550Y797850D01*
X296350Y797850D01*
X296350Y802350D01*
X296350Y799275D02*
X314550Y799275D01*
X314550Y800700D02*
X296350Y800700D01*
X296350Y802125D02*
X314550Y802125D01*
D14*
X225850Y889000D03*
X225850Y850900D03*
X225850Y876300D03*
X225850Y863600D03*
D15*
X167600Y850900D03*
X167600Y863600D03*
X167600Y876300D03*
X167600Y889000D03*
D16*
X190350Y869950D03*
D14*
X130600Y977900D03*
X130600Y939800D03*
X130600Y965200D03*
X130600Y952500D03*
D15*
X72350Y939800D03*
X72350Y952500D03*
X72350Y965200D03*
X72350Y977900D03*
D16*
X95100Y958850D03*
D14*
X225850Y977900D03*
X225850Y939800D03*
X225850Y965200D03*
X225850Y952500D03*
D15*
X167600Y939800D03*
X167600Y952500D03*
X167600Y965200D03*
X167600Y977900D03*
D16*
X190350Y958850D03*
D17*
X345850Y973800D02*
X364050Y973800D01*
X364050Y969300D01*
X345850Y969300D01*
X345850Y973800D01*
X345850Y970725D02*
X364050Y970725D01*
X364050Y972150D02*
X345850Y972150D01*
X345850Y973575D02*
X364050Y973575D01*
X364050Y961100D02*
X345850Y961100D01*
X364050Y961100D02*
X364050Y956600D01*
X345850Y956600D01*
X345850Y961100D01*
X345850Y958025D02*
X364050Y958025D01*
X364050Y959450D02*
X345850Y959450D01*
X345850Y960875D02*
X364050Y960875D01*
X364050Y948400D02*
X345850Y948400D01*
X364050Y948400D02*
X364050Y943900D01*
X345850Y943900D01*
X345850Y948400D01*
X345850Y945325D02*
X364050Y945325D01*
X364050Y946750D02*
X345850Y946750D01*
X345850Y948175D02*
X364050Y948175D01*
X364050Y935700D02*
X345850Y935700D01*
X364050Y935700D02*
X364050Y931200D01*
X345850Y931200D01*
X345850Y935700D01*
X345850Y932625D02*
X364050Y932625D01*
X364050Y934050D02*
X345850Y934050D01*
X345850Y935475D02*
X364050Y935475D01*
X314550Y935700D02*
X296350Y935700D01*
X314550Y935700D02*
X314550Y931200D01*
X296350Y931200D01*
X296350Y935700D01*
X296350Y932625D02*
X314550Y932625D01*
X314550Y934050D02*
X296350Y934050D01*
X296350Y935475D02*
X314550Y935475D01*
X314550Y948400D02*
X296350Y948400D01*
X314550Y948400D02*
X314550Y943900D01*
X296350Y943900D01*
X296350Y948400D01*
X296350Y945325D02*
X314550Y945325D01*
X314550Y946750D02*
X296350Y946750D01*
X296350Y948175D02*
X314550Y948175D01*
X314550Y961100D02*
X296350Y961100D01*
X314550Y961100D02*
X314550Y956600D01*
X296350Y956600D01*
X296350Y961100D01*
X296350Y958025D02*
X314550Y958025D01*
X314550Y959450D02*
X296350Y959450D01*
X296350Y960875D02*
X314550Y960875D01*
X314550Y973800D02*
X296350Y973800D01*
X314550Y973800D02*
X314550Y969300D01*
X296350Y969300D01*
X296350Y973800D01*
X296350Y970725D02*
X314550Y970725D01*
X314550Y972150D02*
X296350Y972150D01*
X296350Y973575D02*
X314550Y973575D01*
D14*
X130600Y800100D03*
X130600Y762000D03*
X130600Y787400D03*
X130600Y774700D03*
D15*
X72350Y762000D03*
X72350Y774700D03*
X72350Y787400D03*
X72350Y800100D03*
D16*
X95100Y781050D03*
D17*
X345850Y884900D02*
X364050Y884900D01*
X364050Y880400D01*
X345850Y880400D01*
X345850Y884900D01*
X345850Y881825D02*
X364050Y881825D01*
X364050Y883250D02*
X345850Y883250D01*
X345850Y884675D02*
X364050Y884675D01*
X364050Y872200D02*
X345850Y872200D01*
X364050Y872200D02*
X364050Y867700D01*
X345850Y867700D01*
X345850Y872200D01*
X345850Y869125D02*
X364050Y869125D01*
X364050Y870550D02*
X345850Y870550D01*
X345850Y871975D02*
X364050Y871975D01*
X364050Y859500D02*
X345850Y859500D01*
X364050Y859500D02*
X364050Y855000D01*
X345850Y855000D01*
X345850Y859500D01*
X345850Y856425D02*
X364050Y856425D01*
X364050Y857850D02*
X345850Y857850D01*
X345850Y859275D02*
X364050Y859275D01*
X364050Y846800D02*
X345850Y846800D01*
X364050Y846800D02*
X364050Y842300D01*
X345850Y842300D01*
X345850Y846800D01*
X345850Y843725D02*
X364050Y843725D01*
X364050Y845150D02*
X345850Y845150D01*
X345850Y846575D02*
X364050Y846575D01*
X314550Y846800D02*
X296350Y846800D01*
X314550Y846800D02*
X314550Y842300D01*
X296350Y842300D01*
X296350Y846800D01*
X296350Y843725D02*
X314550Y843725D01*
X314550Y845150D02*
X296350Y845150D01*
X296350Y846575D02*
X314550Y846575D01*
X314550Y859500D02*
X296350Y859500D01*
X314550Y859500D02*
X314550Y855000D01*
X296350Y855000D01*
X296350Y859500D01*
X296350Y856425D02*
X314550Y856425D01*
X314550Y857850D02*
X296350Y857850D01*
X296350Y859275D02*
X314550Y859275D01*
X314550Y872200D02*
X296350Y872200D01*
X314550Y872200D02*
X314550Y867700D01*
X296350Y867700D01*
X296350Y872200D01*
X296350Y869125D02*
X314550Y869125D01*
X314550Y870550D02*
X296350Y870550D01*
X296350Y871975D02*
X314550Y871975D01*
X314550Y884900D02*
X296350Y884900D01*
X314550Y884900D02*
X314550Y880400D01*
X296350Y880400D01*
X296350Y884900D01*
X296350Y881825D02*
X314550Y881825D01*
X314550Y883250D02*
X296350Y883250D01*
X296350Y884675D02*
X314550Y884675D01*
D14*
X225850Y800100D03*
X225850Y762000D03*
X225850Y787400D03*
X225850Y774700D03*
D15*
X167600Y762000D03*
X167600Y774700D03*
X167600Y787400D03*
X167600Y800100D03*
D16*
X190350Y781050D03*
D18*
X130600Y863600D02*
X130600Y889000D01*
X130600Y800100D02*
X130600Y774700D01*
D19*
X139700Y958850D03*
X139700Y965200D03*
X139700Y971550D03*
X139700Y977900D03*
X120650Y977900D03*
X120650Y971550D03*
X120650Y965200D03*
X120650Y958850D03*
X121920Y885190D03*
X121920Y877570D03*
X121920Y869950D03*
X121920Y863600D03*
X121920Y797560D03*
X121920Y789940D03*
X121920Y782320D03*
X121920Y775970D03*
X139700Y793750D03*
X139700Y787400D03*
X364300Y893000D03*
X291813Y952500D03*
X200660Y897890D03*
X184150Y921037D03*
X215900Y821690D03*
D18*
X340200Y984250D02*
X342250Y984250D01*
X354950Y971550D01*
X340200Y819150D02*
X354950Y804400D01*
X354950Y800100D01*
X354950Y886950D02*
X340200Y901700D01*
X354950Y886950D02*
X354950Y882650D01*
X377054Y882650D02*
X379027Y880677D01*
X377054Y882650D02*
X369570Y882650D01*
X380350Y800100D02*
X385823Y794627D01*
X380350Y800100D02*
X354950Y800100D01*
X385823Y794627D02*
X387350Y796154D01*
X377054Y971550D02*
X354950Y971550D01*
X377054Y971550D02*
X387350Y961254D01*
D19*
X488950Y825500D03*
X488950Y812800D03*
D18*
X462144Y961254D02*
X387350Y961254D01*
X462144Y961254D02*
X462280Y961390D01*
D19*
X462280Y961390D03*
X462280Y969010D03*
X450850Y984250D03*
D18*
X387350Y802640D02*
X387350Y796154D01*
X387350Y802640D02*
X384810Y805180D01*
D19*
X384810Y805180D03*
D18*
X387350Y798830D02*
X387350Y796154D01*
X387350Y798830D02*
X393700Y805180D01*
D19*
X393700Y805180D03*
D18*
X387350Y872354D02*
X378596Y872354D01*
X374650Y876300D01*
D19*
X374650Y876300D03*
D18*
X379027Y880677D02*
X387350Y872354D01*
D19*
X379027Y880677D03*
D18*
X369570Y882650D02*
X354950Y882650D01*
D19*
X369570Y882650D03*
D18*
X387350Y961254D02*
X387350Y970280D01*
X388620Y971550D01*
D19*
X388620Y971550D03*
X246380Y784860D03*
X154940Y963930D03*
X154940Y971550D03*
X154940Y977900D03*
X177800Y976630D03*
X185420Y976630D03*
X193040Y976630D03*
X200660Y976630D03*
X200660Y969010D03*
X193040Y969010D03*
X185420Y969010D03*
X177800Y969010D03*
X184150Y885190D03*
X184150Y877570D03*
X184150Y869950D03*
X184150Y862330D03*
X203200Y857250D03*
X195580Y857250D03*
X177800Y792480D03*
X185420Y792480D03*
X193040Y792480D03*
X200660Y792480D03*
X200660Y784860D03*
X193040Y784860D03*
X185420Y784860D03*
X177800Y784860D03*
X177800Y777240D03*
X185420Y777240D03*
X193040Y777240D03*
X200660Y777240D03*
X185420Y769620D03*
X194310Y769620D03*
X201930Y769620D03*
X189230Y763270D03*
X198120Y763270D03*
X201930Y876300D03*
X193040Y876300D03*
X62230Y963930D03*
X62230Y949960D03*
X62230Y938530D03*
X62230Y925830D03*
X62230Y911860D03*
X62230Y897890D03*
X60960Y882650D03*
X62230Y869950D03*
X62230Y853440D03*
X62230Y835660D03*
X62230Y796290D03*
X62230Y781050D03*
X62230Y768350D03*
X62230Y754380D03*
D18*
X182880Y876300D02*
X184150Y877570D01*
X182880Y876300D02*
X167600Y876300D01*
X177800Y777240D02*
X175260Y774700D01*
X167600Y774700D01*
D19*
X469900Y951230D03*
X478790Y951230D03*
X487680Y951230D03*
X478790Y943610D03*
X487680Y943610D03*
X469900Y943610D03*
X469900Y935990D03*
X478790Y935990D03*
X487680Y935990D03*
X487680Y928370D03*
X478790Y928370D03*
X469900Y928370D03*
D18*
X225850Y952500D02*
X222250Y952500D01*
X215900Y946150D01*
X285750Y946150D02*
X305450Y946150D01*
X215900Y946150D02*
X215900Y933450D01*
X273050Y933450D01*
X285750Y946150D01*
X305450Y946150D02*
X309880Y946150D01*
X336550Y919480D02*
X405130Y919480D01*
X419100Y933450D01*
X419100Y950446D01*
X336550Y919480D02*
X309880Y946150D01*
D19*
X234950Y955040D03*
D18*
X225850Y863600D02*
X215900Y853650D01*
X215900Y844550D01*
X222250Y838200D01*
X279400Y838200D02*
X285750Y844550D01*
X285750Y850900D01*
X292100Y857250D01*
X305450Y857250D01*
X279400Y838200D02*
X222250Y838200D01*
X305450Y857250D02*
X311150Y857250D01*
X399564Y835660D02*
X419100Y855196D01*
X332740Y835660D02*
X311150Y857250D01*
X332740Y835660D02*
X399564Y835660D01*
D19*
X231140Y911860D03*
D18*
X225850Y774700D02*
X215900Y764750D01*
X215900Y755650D01*
X247650Y755650D01*
X260350Y768350D01*
X285750Y768350D01*
X292100Y774700D01*
X305450Y774700D01*
X323850Y774700D01*
X332740Y765810D02*
X332740Y753110D01*
X335280Y750570D01*
X403374Y750570D02*
X419100Y766296D01*
X332740Y765810D02*
X323850Y774700D01*
X335280Y750570D02*
X403374Y750570D01*
D19*
X234950Y876300D03*
X222250Y793750D03*
D18*
X225850Y790150D01*
X225850Y787400D01*
X225850Y800100D01*
X225850Y787400D02*
X225850Y774700D01*
D19*
X260350Y876300D03*
D18*
X285750Y901700D01*
D19*
X285750Y901700D03*
D18*
X304800Y920750D01*
D19*
X304800Y920750D03*
X153670Y760730D03*
D18*
X285750Y869950D02*
X305450Y869950D01*
X285750Y869950D02*
X275200Y859400D01*
X275200Y850900D01*
X286400Y825500D02*
X305450Y844550D01*
X286400Y825500D02*
X275200Y825500D01*
X305450Y882650D02*
X305450Y886950D01*
X320200Y901700D01*
X326538Y901700D01*
X333834Y908997D01*
X394807Y908997D01*
X419100Y884704D01*
X133350Y850900D02*
X130600Y850900D01*
X133350Y850900D02*
X152400Y831850D01*
X254000Y831850D01*
X258200Y827650D01*
X258200Y825500D01*
X258200Y850900D02*
X225850Y850900D01*
D19*
X354950Y958850D03*
X356855Y811069D03*
X340360Y876300D03*
X353068Y946150D03*
D18*
X354950Y946150D01*
X305450Y958850D02*
X279400Y958850D01*
X275200Y954650D01*
X275200Y952500D01*
X287900Y933450D02*
X275200Y920750D01*
X287900Y933450D02*
X305450Y933450D01*
X305450Y971550D02*
X318150Y984250D01*
X320200Y984250D01*
X358158Y979954D02*
X419100Y979954D01*
X358158Y979954D02*
X346566Y991547D01*
X327497Y991547D02*
X320200Y984250D01*
X327497Y991547D02*
X346566Y991547D01*
X148590Y927100D02*
X135890Y939800D01*
X130600Y939800D01*
X251850Y927100D02*
X258200Y920750D01*
X251850Y927100D02*
X148590Y927100D01*
X225850Y939800D02*
X254000Y939800D01*
X258200Y944000D01*
X258200Y952500D01*
X294250Y787400D02*
X305450Y787400D01*
X279400Y787400D01*
X276470Y784470D01*
X276470Y782320D01*
X275200Y781050D01*
X299100Y755650D02*
X305450Y762000D01*
X299100Y755650D02*
X281550Y755650D01*
X305450Y800100D02*
X305450Y804400D01*
X320200Y819150D01*
X388457Y826447D02*
X419100Y795804D01*
X327497Y826447D02*
X320200Y819150D01*
X327497Y826447D02*
X388457Y826447D01*
X264550Y755650D02*
X258200Y749300D01*
X152400Y749300D01*
X139700Y762000D02*
X130600Y762000D01*
X139700Y762000D02*
X152400Y749300D01*
X225850Y762000D02*
X241300Y762000D01*
X258200Y778900D01*
X258200Y781050D01*
X354950Y787400D02*
X368300Y787400D01*
X372110Y791210D01*
D19*
X372110Y791210D03*
X372110Y764540D03*
D18*
X361950Y774700D02*
X354950Y774700D01*
X361950Y774700D02*
X372110Y764540D01*
X354950Y857250D02*
X344397Y857250D01*
X339317Y852170D01*
D19*
X339317Y852170D03*
D18*
X354950Y869950D02*
X365760Y869950D01*
X372110Y863600D01*
X372110Y843280D01*
D19*
X372110Y843280D03*
M02*
