G04 EAGLE Gerber RS-274X export*
G75*
%MOMM*%
%FSLAX34Y34*%
%LPD*%
%INSolderpaste Bottom*%
%IPPOS*%
%AMOC8*
5,1,8,0,0,1.08239X$1,22.5*%
G01*
%ADD10R,1.465300X1.164600*%
%ADD11R,1.815300X1.164600*%
%ADD12R,1.000000X0.800000*%
%ADD13R,1.000000X1.100000*%
%ADD14R,0.750000X0.500000*%
%ADD15R,0.750000X0.400000*%
%ADD16R,1.500000X1.500000*%
%ADD17C,0.150000*%


D10*
X387350Y796154D03*
X387350Y778646D03*
X387350Y872354D03*
X387350Y854846D03*
D11*
X419100Y884704D03*
X419100Y855196D03*
X419100Y979954D03*
X419100Y950446D03*
X419100Y795804D03*
X419100Y766296D03*
D10*
X387350Y961254D03*
X387350Y943746D03*
D12*
X340200Y901700D03*
X320200Y901700D03*
X340200Y984250D03*
X320200Y984250D03*
X340200Y819150D03*
X320200Y819150D03*
D13*
X275200Y952500D03*
X258200Y952500D03*
X275200Y920750D03*
X258200Y920750D03*
X275200Y850900D03*
X258200Y850900D03*
X275200Y825500D03*
X258200Y825500D03*
X275200Y781050D03*
X258200Y781050D03*
X281550Y755650D03*
X264550Y755650D03*
D14*
X72550Y850900D03*
X72550Y863600D03*
X72550Y876300D03*
X72550Y889000D03*
D15*
X130600Y889000D03*
X130600Y876300D03*
X130600Y850900D03*
X130600Y863600D03*
D16*
X86600Y878450D03*
X86600Y861450D03*
X103600Y861450D03*
X103600Y878450D03*
D17*
X345850Y802350D02*
X364050Y802350D01*
X364050Y797850D01*
X345850Y797850D01*
X345850Y802350D01*
X345850Y799275D02*
X364050Y799275D01*
X364050Y800700D02*
X345850Y800700D01*
X345850Y802125D02*
X364050Y802125D01*
X364050Y789650D02*
X345850Y789650D01*
X364050Y789650D02*
X364050Y785150D01*
X345850Y785150D01*
X345850Y789650D01*
X345850Y786575D02*
X364050Y786575D01*
X364050Y788000D02*
X345850Y788000D01*
X345850Y789425D02*
X364050Y789425D01*
X364050Y776950D02*
X345850Y776950D01*
X364050Y776950D02*
X364050Y772450D01*
X345850Y772450D01*
X345850Y776950D01*
X345850Y773875D02*
X364050Y773875D01*
X364050Y775300D02*
X345850Y775300D01*
X345850Y776725D02*
X364050Y776725D01*
X364050Y764250D02*
X345850Y764250D01*
X364050Y764250D02*
X364050Y759750D01*
X345850Y759750D01*
X345850Y764250D01*
X345850Y761175D02*
X364050Y761175D01*
X364050Y762600D02*
X345850Y762600D01*
X345850Y764025D02*
X364050Y764025D01*
X314550Y764250D02*
X296350Y764250D01*
X314550Y764250D02*
X314550Y759750D01*
X296350Y759750D01*
X296350Y764250D01*
X296350Y761175D02*
X314550Y761175D01*
X314550Y762600D02*
X296350Y762600D01*
X296350Y764025D02*
X314550Y764025D01*
X314550Y776950D02*
X296350Y776950D01*
X314550Y776950D02*
X314550Y772450D01*
X296350Y772450D01*
X296350Y776950D01*
X296350Y773875D02*
X314550Y773875D01*
X314550Y775300D02*
X296350Y775300D01*
X296350Y776725D02*
X314550Y776725D01*
X314550Y789650D02*
X296350Y789650D01*
X314550Y789650D02*
X314550Y785150D01*
X296350Y785150D01*
X296350Y789650D01*
X296350Y786575D02*
X314550Y786575D01*
X314550Y788000D02*
X296350Y788000D01*
X296350Y789425D02*
X314550Y789425D01*
X314550Y802350D02*
X296350Y802350D01*
X314550Y802350D02*
X314550Y797850D01*
X296350Y797850D01*
X296350Y802350D01*
X296350Y799275D02*
X314550Y799275D01*
X314550Y800700D02*
X296350Y800700D01*
X296350Y802125D02*
X314550Y802125D01*
D14*
X167800Y850900D03*
X167800Y863600D03*
X167800Y876300D03*
X167800Y889000D03*
D15*
X225850Y889000D03*
X225850Y876300D03*
X225850Y850900D03*
X225850Y863600D03*
D16*
X181850Y878450D03*
X181850Y861450D03*
X198850Y861450D03*
X198850Y878450D03*
D14*
X72550Y939800D03*
X72550Y952500D03*
X72550Y965200D03*
X72550Y977900D03*
D15*
X130600Y977900D03*
X130600Y965200D03*
X130600Y939800D03*
X130600Y952500D03*
D16*
X86600Y967350D03*
X86600Y950350D03*
X103600Y950350D03*
X103600Y967350D03*
D14*
X167800Y939800D03*
X167800Y952500D03*
X167800Y965200D03*
X167800Y977900D03*
D15*
X225850Y977900D03*
X225850Y965200D03*
X225850Y939800D03*
X225850Y952500D03*
D16*
X181850Y967350D03*
X181850Y950350D03*
X198850Y950350D03*
X198850Y967350D03*
D17*
X345850Y973800D02*
X364050Y973800D01*
X364050Y969300D01*
X345850Y969300D01*
X345850Y973800D01*
X345850Y970725D02*
X364050Y970725D01*
X364050Y972150D02*
X345850Y972150D01*
X345850Y973575D02*
X364050Y973575D01*
X364050Y961100D02*
X345850Y961100D01*
X364050Y961100D02*
X364050Y956600D01*
X345850Y956600D01*
X345850Y961100D01*
X345850Y958025D02*
X364050Y958025D01*
X364050Y959450D02*
X345850Y959450D01*
X345850Y960875D02*
X364050Y960875D01*
X364050Y948400D02*
X345850Y948400D01*
X364050Y948400D02*
X364050Y943900D01*
X345850Y943900D01*
X345850Y948400D01*
X345850Y945325D02*
X364050Y945325D01*
X364050Y946750D02*
X345850Y946750D01*
X345850Y948175D02*
X364050Y948175D01*
X364050Y935700D02*
X345850Y935700D01*
X364050Y935700D02*
X364050Y931200D01*
X345850Y931200D01*
X345850Y935700D01*
X345850Y932625D02*
X364050Y932625D01*
X364050Y934050D02*
X345850Y934050D01*
X345850Y935475D02*
X364050Y935475D01*
X314550Y935700D02*
X296350Y935700D01*
X314550Y935700D02*
X314550Y931200D01*
X296350Y931200D01*
X296350Y935700D01*
X296350Y932625D02*
X314550Y932625D01*
X314550Y934050D02*
X296350Y934050D01*
X296350Y935475D02*
X314550Y935475D01*
X314550Y948400D02*
X296350Y948400D01*
X314550Y948400D02*
X314550Y943900D01*
X296350Y943900D01*
X296350Y948400D01*
X296350Y945325D02*
X314550Y945325D01*
X314550Y946750D02*
X296350Y946750D01*
X296350Y948175D02*
X314550Y948175D01*
X314550Y961100D02*
X296350Y961100D01*
X314550Y961100D02*
X314550Y956600D01*
X296350Y956600D01*
X296350Y961100D01*
X296350Y958025D02*
X314550Y958025D01*
X314550Y959450D02*
X296350Y959450D01*
X296350Y960875D02*
X314550Y960875D01*
X314550Y973800D02*
X296350Y973800D01*
X314550Y973800D02*
X314550Y969300D01*
X296350Y969300D01*
X296350Y973800D01*
X296350Y970725D02*
X314550Y970725D01*
X314550Y972150D02*
X296350Y972150D01*
X296350Y973575D02*
X314550Y973575D01*
D14*
X72550Y762000D03*
X72550Y774700D03*
X72550Y787400D03*
X72550Y800100D03*
D15*
X130600Y800100D03*
X130600Y787400D03*
X130600Y762000D03*
X130600Y774700D03*
D16*
X86600Y789550D03*
X86600Y772550D03*
X103600Y772550D03*
X103600Y789550D03*
D17*
X345850Y884900D02*
X364050Y884900D01*
X364050Y880400D01*
X345850Y880400D01*
X345850Y884900D01*
X345850Y881825D02*
X364050Y881825D01*
X364050Y883250D02*
X345850Y883250D01*
X345850Y884675D02*
X364050Y884675D01*
X364050Y872200D02*
X345850Y872200D01*
X364050Y872200D02*
X364050Y867700D01*
X345850Y867700D01*
X345850Y872200D01*
X345850Y869125D02*
X364050Y869125D01*
X364050Y870550D02*
X345850Y870550D01*
X345850Y871975D02*
X364050Y871975D01*
X364050Y859500D02*
X345850Y859500D01*
X364050Y859500D02*
X364050Y855000D01*
X345850Y855000D01*
X345850Y859500D01*
X345850Y856425D02*
X364050Y856425D01*
X364050Y857850D02*
X345850Y857850D01*
X345850Y859275D02*
X364050Y859275D01*
X364050Y846800D02*
X345850Y846800D01*
X364050Y846800D02*
X364050Y842300D01*
X345850Y842300D01*
X345850Y846800D01*
X345850Y843725D02*
X364050Y843725D01*
X364050Y845150D02*
X345850Y845150D01*
X345850Y846575D02*
X364050Y846575D01*
X314550Y846800D02*
X296350Y846800D01*
X314550Y846800D02*
X314550Y842300D01*
X296350Y842300D01*
X296350Y846800D01*
X296350Y843725D02*
X314550Y843725D01*
X314550Y845150D02*
X296350Y845150D01*
X296350Y846575D02*
X314550Y846575D01*
X314550Y859500D02*
X296350Y859500D01*
X314550Y859500D02*
X314550Y855000D01*
X296350Y855000D01*
X296350Y859500D01*
X296350Y856425D02*
X314550Y856425D01*
X314550Y857850D02*
X296350Y857850D01*
X296350Y859275D02*
X314550Y859275D01*
X314550Y872200D02*
X296350Y872200D01*
X314550Y872200D02*
X314550Y867700D01*
X296350Y867700D01*
X296350Y872200D01*
X296350Y869125D02*
X314550Y869125D01*
X314550Y870550D02*
X296350Y870550D01*
X296350Y871975D02*
X314550Y871975D01*
X314550Y884900D02*
X296350Y884900D01*
X314550Y884900D02*
X314550Y880400D01*
X296350Y880400D01*
X296350Y884900D01*
X296350Y881825D02*
X314550Y881825D01*
X314550Y883250D02*
X296350Y883250D01*
X296350Y884675D02*
X314550Y884675D01*
D14*
X167800Y762000D03*
X167800Y774700D03*
X167800Y787400D03*
X167800Y800100D03*
D15*
X225850Y800100D03*
X225850Y787400D03*
X225850Y762000D03*
X225850Y774700D03*
D16*
X181850Y789550D03*
X181850Y772550D03*
X198850Y772550D03*
X198850Y789550D03*
M02*
