G04 EAGLE Gerber RS-274X export*
G75*
%MOMM*%
%FSLAX34Y34*%
%LPD*%
%INSoldermask Bottom*%
%IPPOS*%
%AMOC8*
5,1,8,0,0,1.08239X$1,22.5*%
G01*
%ADD10R,3.048000X3.175000*%
%ADD11R,16.510000X1.270000*%
%ADD12R,6.604000X6.477000*%
%ADD13R,6.350000X7.239000*%
%ADD14R,1.617700X1.317000*%
%ADD15R,1.967700X1.317000*%
%ADD16R,1.152400X0.952400*%
%ADD17R,1.152400X1.252400*%
%ADD18R,1.002400X0.652400*%
%ADD19R,0.952400X0.752400*%
%ADD20R,3.902400X4.562400*%
%ADD21C,0.300959*%
%ADD22C,0.152400*%


D10*
X478790Y940435D03*
D11*
X148590Y991870D03*
D12*
X33020Y965835D03*
X30480Y871855D03*
D13*
X31750Y777875D03*
D11*
X146050Y910590D03*
X146050Y816610D03*
D10*
X478790Y763905D03*
D14*
X387350Y796154D03*
X387350Y778646D03*
X387350Y872354D03*
X387350Y854846D03*
D15*
X419100Y884704D03*
X419100Y855196D03*
X419100Y979954D03*
X419100Y950446D03*
X419100Y795804D03*
X419100Y766296D03*
D14*
X387350Y961254D03*
X387350Y943746D03*
D16*
X340200Y901700D03*
X320200Y901700D03*
X340200Y984250D03*
X320200Y984250D03*
X340200Y819150D03*
X320200Y819150D03*
D17*
X275200Y952500D03*
X258200Y952500D03*
X275200Y920750D03*
X258200Y920750D03*
X275200Y850900D03*
X258200Y850900D03*
X275200Y825500D03*
X258200Y825500D03*
X275200Y781050D03*
X258200Y781050D03*
X281550Y755650D03*
X264550Y755650D03*
D18*
X130600Y889000D03*
X130600Y850900D03*
X130600Y876300D03*
X130600Y863600D03*
D19*
X72350Y850900D03*
X72350Y863600D03*
X72350Y876300D03*
X72350Y889000D03*
D20*
X95100Y869950D03*
D21*
X345843Y802357D02*
X364057Y802357D01*
X364057Y797843D01*
X345843Y797843D01*
X345843Y802357D01*
X345843Y800702D02*
X364057Y800702D01*
X364057Y789657D02*
X345843Y789657D01*
X364057Y789657D02*
X364057Y785143D01*
X345843Y785143D01*
X345843Y789657D01*
X345843Y788002D02*
X364057Y788002D01*
X364057Y776957D02*
X345843Y776957D01*
X364057Y776957D02*
X364057Y772443D01*
X345843Y772443D01*
X345843Y776957D01*
X345843Y775302D02*
X364057Y775302D01*
X364057Y764257D02*
X345843Y764257D01*
X364057Y764257D02*
X364057Y759743D01*
X345843Y759743D01*
X345843Y764257D01*
X345843Y762602D02*
X364057Y762602D01*
X314557Y764257D02*
X296343Y764257D01*
X314557Y764257D02*
X314557Y759743D01*
X296343Y759743D01*
X296343Y764257D01*
X296343Y762602D02*
X314557Y762602D01*
X314557Y776957D02*
X296343Y776957D01*
X314557Y776957D02*
X314557Y772443D01*
X296343Y772443D01*
X296343Y776957D01*
X296343Y775302D02*
X314557Y775302D01*
X314557Y789657D02*
X296343Y789657D01*
X314557Y789657D02*
X314557Y785143D01*
X296343Y785143D01*
X296343Y789657D01*
X296343Y788002D02*
X314557Y788002D01*
X314557Y802357D02*
X296343Y802357D01*
X314557Y802357D02*
X314557Y797843D01*
X296343Y797843D01*
X296343Y802357D01*
X296343Y800702D02*
X314557Y800702D01*
D18*
X225850Y889000D03*
X225850Y850900D03*
X225850Y876300D03*
X225850Y863600D03*
D19*
X167600Y850900D03*
X167600Y863600D03*
X167600Y876300D03*
X167600Y889000D03*
D20*
X190350Y869950D03*
D18*
X130600Y977900D03*
X130600Y939800D03*
X130600Y965200D03*
X130600Y952500D03*
D19*
X72350Y939800D03*
X72350Y952500D03*
X72350Y965200D03*
X72350Y977900D03*
D20*
X95100Y958850D03*
D18*
X225850Y977900D03*
X225850Y939800D03*
X225850Y965200D03*
X225850Y952500D03*
D19*
X167600Y939800D03*
X167600Y952500D03*
X167600Y965200D03*
X167600Y977900D03*
D20*
X190350Y958850D03*
D22*
X251138Y980851D02*
X251138Y987088D01*
X251138Y980851D02*
X251136Y980754D01*
X251130Y980658D01*
X251121Y980562D01*
X251107Y980466D01*
X251090Y980371D01*
X251068Y980277D01*
X251043Y980184D01*
X251015Y980091D01*
X250982Y980000D01*
X250946Y979911D01*
X250906Y979823D01*
X250863Y979736D01*
X250817Y979652D01*
X250767Y979569D01*
X250713Y979488D01*
X250657Y979410D01*
X250597Y979334D01*
X250535Y979260D01*
X250469Y979189D01*
X250401Y979121D01*
X250330Y979055D01*
X250256Y978993D01*
X250180Y978933D01*
X250102Y978877D01*
X250021Y978823D01*
X249938Y978773D01*
X249854Y978727D01*
X249767Y978684D01*
X249679Y978644D01*
X249590Y978608D01*
X249499Y978575D01*
X249406Y978547D01*
X249313Y978522D01*
X249219Y978500D01*
X249124Y978483D01*
X249028Y978469D01*
X248932Y978460D01*
X248836Y978454D01*
X248739Y978452D01*
X248642Y978454D01*
X248546Y978460D01*
X248450Y978469D01*
X248354Y978483D01*
X248259Y978500D01*
X248165Y978522D01*
X248072Y978547D01*
X247979Y978575D01*
X247888Y978608D01*
X247799Y978644D01*
X247711Y978684D01*
X247624Y978727D01*
X247540Y978773D01*
X247457Y978823D01*
X247376Y978877D01*
X247298Y978933D01*
X247222Y978993D01*
X247148Y979055D01*
X247077Y979121D01*
X247009Y979189D01*
X246943Y979260D01*
X246881Y979334D01*
X246821Y979410D01*
X246765Y979488D01*
X246711Y979569D01*
X246661Y979652D01*
X246615Y979736D01*
X246572Y979823D01*
X246532Y979911D01*
X246496Y980000D01*
X246463Y980091D01*
X246435Y980184D01*
X246410Y980277D01*
X246388Y980371D01*
X246371Y980466D01*
X246357Y980562D01*
X246348Y980658D01*
X246342Y980754D01*
X246340Y980851D01*
X246340Y987088D01*
X241689Y978452D02*
X238811Y978452D01*
X238725Y978454D01*
X238639Y978460D01*
X238553Y978469D01*
X238468Y978483D01*
X238384Y978500D01*
X238300Y978521D01*
X238218Y978546D01*
X238137Y978574D01*
X238057Y978606D01*
X237978Y978642D01*
X237902Y978681D01*
X237827Y978724D01*
X237754Y978769D01*
X237683Y978818D01*
X237615Y978871D01*
X237548Y978926D01*
X237485Y978984D01*
X237424Y979045D01*
X237366Y979108D01*
X237311Y979175D01*
X237258Y979243D01*
X237209Y979314D01*
X237164Y979387D01*
X237121Y979462D01*
X237082Y979538D01*
X237046Y979617D01*
X237014Y979697D01*
X236986Y979778D01*
X236961Y979860D01*
X236940Y979944D01*
X236923Y980028D01*
X236909Y980113D01*
X236900Y980199D01*
X236894Y980285D01*
X236892Y980371D01*
X236891Y980371D02*
X236891Y981331D01*
X236892Y981331D02*
X236894Y981417D01*
X236900Y981503D01*
X236909Y981589D01*
X236923Y981674D01*
X236940Y981758D01*
X236961Y981842D01*
X236986Y981924D01*
X237014Y982005D01*
X237046Y982085D01*
X237082Y982164D01*
X237121Y982240D01*
X237164Y982315D01*
X237209Y982388D01*
X237259Y982459D01*
X237311Y982527D01*
X237366Y982594D01*
X237424Y982657D01*
X237485Y982718D01*
X237548Y982776D01*
X237615Y982831D01*
X237683Y982884D01*
X237754Y982933D01*
X237827Y982978D01*
X237902Y983021D01*
X237978Y983060D01*
X238057Y983096D01*
X238137Y983128D01*
X238218Y983156D01*
X238301Y983181D01*
X238384Y983202D01*
X238468Y983219D01*
X238553Y983233D01*
X238639Y983242D01*
X238725Y983248D01*
X238811Y983250D01*
X241689Y983250D01*
X241689Y987088D01*
X236891Y987088D01*
D21*
X345843Y973807D02*
X364057Y973807D01*
X364057Y969293D01*
X345843Y969293D01*
X345843Y973807D01*
X345843Y972152D02*
X364057Y972152D01*
X364057Y961107D02*
X345843Y961107D01*
X364057Y961107D02*
X364057Y956593D01*
X345843Y956593D01*
X345843Y961107D01*
X345843Y959452D02*
X364057Y959452D01*
X364057Y948407D02*
X345843Y948407D01*
X364057Y948407D02*
X364057Y943893D01*
X345843Y943893D01*
X345843Y948407D01*
X345843Y946752D02*
X364057Y946752D01*
X364057Y935707D02*
X345843Y935707D01*
X364057Y935707D02*
X364057Y931193D01*
X345843Y931193D01*
X345843Y935707D01*
X345843Y934052D02*
X364057Y934052D01*
X314557Y935707D02*
X296343Y935707D01*
X314557Y935707D02*
X314557Y931193D01*
X296343Y931193D01*
X296343Y935707D01*
X296343Y934052D02*
X314557Y934052D01*
X314557Y948407D02*
X296343Y948407D01*
X314557Y948407D02*
X314557Y943893D01*
X296343Y943893D01*
X296343Y948407D01*
X296343Y946752D02*
X314557Y946752D01*
X314557Y961107D02*
X296343Y961107D01*
X314557Y961107D02*
X314557Y956593D01*
X296343Y956593D01*
X296343Y961107D01*
X296343Y959452D02*
X314557Y959452D01*
X314557Y973807D02*
X296343Y973807D01*
X314557Y973807D02*
X314557Y969293D01*
X296343Y969293D01*
X296343Y973807D01*
X296343Y972152D02*
X314557Y972152D01*
D18*
X130600Y800100D03*
X130600Y762000D03*
X130600Y787400D03*
X130600Y774700D03*
D19*
X72350Y762000D03*
X72350Y774700D03*
X72350Y787400D03*
X72350Y800100D03*
D20*
X95100Y781050D03*
D21*
X345843Y884907D02*
X364057Y884907D01*
X364057Y880393D01*
X345843Y880393D01*
X345843Y884907D01*
X345843Y883252D02*
X364057Y883252D01*
X364057Y872207D02*
X345843Y872207D01*
X364057Y872207D02*
X364057Y867693D01*
X345843Y867693D01*
X345843Y872207D01*
X345843Y870552D02*
X364057Y870552D01*
X364057Y859507D02*
X345843Y859507D01*
X364057Y859507D02*
X364057Y854993D01*
X345843Y854993D01*
X345843Y859507D01*
X345843Y857852D02*
X364057Y857852D01*
X364057Y846807D02*
X345843Y846807D01*
X364057Y846807D02*
X364057Y842293D01*
X345843Y842293D01*
X345843Y846807D01*
X345843Y845152D02*
X364057Y845152D01*
X314557Y846807D02*
X296343Y846807D01*
X314557Y846807D02*
X314557Y842293D01*
X296343Y842293D01*
X296343Y846807D01*
X296343Y845152D02*
X314557Y845152D01*
X314557Y859507D02*
X296343Y859507D01*
X314557Y859507D02*
X314557Y854993D01*
X296343Y854993D01*
X296343Y859507D01*
X296343Y857852D02*
X314557Y857852D01*
X314557Y872207D02*
X296343Y872207D01*
X314557Y872207D02*
X314557Y867693D01*
X296343Y867693D01*
X296343Y872207D01*
X296343Y870552D02*
X314557Y870552D01*
X314557Y884907D02*
X296343Y884907D01*
X314557Y884907D02*
X314557Y880393D01*
X296343Y880393D01*
X296343Y884907D01*
X296343Y883252D02*
X314557Y883252D01*
D18*
X225850Y800100D03*
X225850Y762000D03*
X225850Y787400D03*
X225850Y774700D03*
D19*
X167600Y762000D03*
X167600Y774700D03*
X167600Y787400D03*
X167600Y800100D03*
D20*
X190350Y781050D03*
M02*
