G04 EAGLE Gerber RS-274X export*
G75*
%MOMM*%
%FSLAX34Y34*%
%LPD*%
%INSolderpaste Top*%
%IPPOS*%
%AMOC8*
5,1,8,0,0,1.08239X$1,22.5*%
G01*
%ADD10R,1.164600X1.815300*%
%ADD11R,0.970200X0.920900*%
%ADD12R,1.164600X1.465300*%
%ADD13R,1.465300X1.164600*%
%ADD14R,0.900000X0.800000*%
%ADD15R,1.200000X0.600000*%
%ADD16R,1.000000X1.100000*%
%ADD17R,1.100000X1.000000*%
%ADD18R,1.200000X0.500000*%
%ADD19R,0.500000X1.200000*%
%ADD20R,1.900000X1.100000*%
%ADD21C,0.295000*%


D10*
X74146Y933450D03*
X103654Y933450D03*
X74146Y869950D03*
X103654Y869950D03*
X74146Y838200D03*
X103654Y838200D03*
X74146Y901700D03*
X103654Y901700D03*
D11*
X361950Y947546D03*
X361950Y932054D03*
D10*
X74146Y965200D03*
X103654Y965200D03*
X74146Y806450D03*
X103654Y806450D03*
X74146Y768350D03*
X103654Y768350D03*
D12*
X461146Y984250D03*
X478654Y984250D03*
D10*
X477034Y760730D03*
X447526Y760730D03*
D12*
X440554Y984250D03*
X423046Y984250D03*
D11*
X438150Y932054D03*
X438150Y947546D03*
D13*
X368300Y986654D03*
X368300Y969146D03*
X330200Y954904D03*
X330200Y937396D03*
D10*
X344954Y781050D03*
X315446Y781050D03*
D12*
X448446Y787400D03*
X465954Y787400D03*
D14*
X459422Y843280D03*
X475298Y843280D03*
D15*
X197210Y822300D03*
X197210Y803300D03*
X171090Y822300D03*
X171090Y812800D03*
X171090Y803300D03*
X197210Y885800D03*
X197210Y866800D03*
X171090Y885800D03*
X171090Y876300D03*
X171090Y866800D03*
X197210Y949300D03*
X197210Y930300D03*
X171090Y949300D03*
X171090Y939800D03*
X171090Y930300D03*
D16*
X445380Y849630D03*
X428380Y849630D03*
D17*
X247650Y878450D03*
X247650Y861450D03*
X247650Y916550D03*
X247650Y899550D03*
X247650Y954650D03*
X247650Y937650D03*
X266700Y802250D03*
X266700Y785250D03*
X304800Y937650D03*
X304800Y954650D03*
X292100Y785250D03*
X292100Y802250D03*
X336550Y969400D03*
X336550Y986400D03*
X273050Y878450D03*
X273050Y861450D03*
X273050Y916550D03*
X273050Y899550D03*
X273050Y954650D03*
X273050Y937650D03*
X222250Y861450D03*
X222250Y878450D03*
X222250Y899550D03*
X222250Y916550D03*
X222250Y937650D03*
X222250Y954650D03*
D18*
X325800Y891600D03*
X325800Y883600D03*
X325800Y875600D03*
X325800Y867600D03*
X325800Y859600D03*
X325800Y851600D03*
X325800Y843600D03*
X325800Y835600D03*
X410800Y835600D03*
X410800Y843600D03*
X410800Y851600D03*
X410800Y859600D03*
X410800Y867600D03*
X410800Y875600D03*
X410800Y883600D03*
X410800Y891600D03*
D19*
X396300Y906100D03*
X388300Y906100D03*
X380300Y906100D03*
X372300Y906100D03*
X364300Y906100D03*
X356300Y906100D03*
X348300Y906100D03*
X340300Y906100D03*
X340300Y821100D03*
X348300Y821100D03*
X356300Y821100D03*
X364300Y821100D03*
X372300Y821100D03*
X380300Y821100D03*
X388300Y821100D03*
X396300Y821100D03*
D20*
X381550Y928300D03*
X418550Y951300D03*
X381550Y951300D03*
X418550Y928300D03*
D21*
X471525Y811125D02*
X480675Y811125D01*
X480675Y808175D01*
X471525Y808175D01*
X471525Y811125D01*
X471525Y810977D02*
X480675Y810977D01*
X480675Y820625D02*
X471525Y820625D01*
X480675Y820625D02*
X480675Y817675D01*
X471525Y817675D01*
X471525Y820625D01*
X471525Y820477D02*
X480675Y820477D01*
X480675Y830125D02*
X471525Y830125D01*
X480675Y830125D02*
X480675Y827175D01*
X471525Y827175D01*
X471525Y830125D01*
X471525Y829977D02*
X480675Y829977D01*
X455575Y830125D02*
X446425Y830125D01*
X455575Y830125D02*
X455575Y827175D01*
X446425Y827175D01*
X446425Y830125D01*
X446425Y829977D02*
X455575Y829977D01*
X455575Y811125D02*
X446425Y811125D01*
X455575Y811125D02*
X455575Y808175D01*
X446425Y808175D01*
X446425Y811125D01*
X446425Y810977D02*
X455575Y810977D01*
D17*
X165100Y776850D03*
X165100Y759850D03*
X133350Y776850D03*
X133350Y759850D03*
D13*
X146050Y821554D03*
X146050Y804046D03*
X146050Y885054D03*
X146050Y867546D03*
X146050Y948554D03*
X146050Y931046D03*
M02*
