M48
;GenerationSoftware,Autodesk,EAGLE,9.6.2*%
;CreationDate,2022-12-29T11:54:37Z*%
FMAT,2
ICI,OFF
METRIC,TZ,000.000
T1C0.350
%
G90
M71
T1
X13970Y95885
X13970Y96520
X13970Y97155
X13970Y97790
X12065Y97790
X12065Y97155
X12065Y96520
X12065Y95885
X12192Y88519
X12192Y87757
X12192Y86995
X12192Y86360
X12192Y79756
X12192Y78994
X12192Y78232
X12192Y77597
X13970Y79375
X13970Y78740
X36430Y89300
X29181Y95250
X20066Y89789
X18415Y92104
X21590Y82169
X48895Y82550
X48895Y81280
X46228Y96139
X46228Y96901
X45085Y98425
X38481Y80518
X39370Y80518
X37465Y87630
X37903Y88068
X36957Y88265
X38862Y97155
X24638Y78486
X15494Y96393
X15494Y97155
X15494Y97790
X17780Y97663
X18542Y97663
X19304Y97663
X20066Y97663
X20066Y96901
X19304Y96901
X18542Y96901
X17780Y96901
X18415Y88519
X18415Y87757
X18415Y86995
X18415Y86233
X20320Y85725
X19558Y85725
X17780Y79248
X18542Y79248
X19304Y79248
X20066Y79248
X20066Y78486
X19304Y78486
X18542Y78486
X17780Y78486
X17780Y77724
X18542Y77724
X19304Y77724
X20066Y77724
X18542Y76962
X19431Y76962
X20193Y76962
X18923Y76327
X19812Y76327
X20193Y87630
X19304Y87630
X6223Y96393
X6223Y94996
X6223Y93853
X6223Y92583
X6223Y91186
X6223Y89789
X6096Y88265
X6223Y86995
X6223Y85344
X6223Y83566
X6223Y79629
X6223Y78105
X6223Y76835
X6223Y75438
X46990Y95123
X47879Y95123
X48768Y95123
X47879Y94361
X48768Y94361
X46990Y94361
X46990Y93599
X47879Y93599
X48768Y93599
X48768Y92837
X47879Y92837
X46990Y92837
X23495Y95504
X23114Y91186
X23495Y87630
X22225Y79375
X26035Y87630
X28575Y90170
X30480Y92075
X15367Y76073
X35495Y95885
X35686Y81107
X34036Y87630
X35307Y94615
X37211Y79121
X37211Y76454
X33932Y85217
X37211Y84328
M30